<mxfile host="app.diagrams.net" modified="2023-06-23T08:13:07.199Z" agent="Mozilla/5.0 (Windows NT 10.0; Win64; x64) AppleWebKit/537.36 (KHTML, like Gecko) Chrome/114.0.0.0 Safari/537.36" etag="ko6bMY4azRej5nhXPkJK" version="21.5.0" type="github">
  <diagram id="C5RBs43oDa-KdzZeNtuy" name="Page-1">
    <mxGraphModel dx="2100" dy="1146" grid="0" gridSize="10" guides="1" tooltips="1" connect="1" arrows="1" fold="1" page="1" pageScale="1" pageWidth="1654" pageHeight="1169" math="0" shadow="0">
      <root>
        <mxCell id="WIyWlLk6GJQsqaUBKTNV-0" />
        <mxCell id="WIyWlLk6GJQsqaUBKTNV-1" parent="WIyWlLk6GJQsqaUBKTNV-0" />
        <mxCell id="jlqVL0GaNmHU8PocGjJK-5" value="Atractions" style="shape=table;startSize=30;container=1;collapsible=0;childLayout=tableLayout;fixedRows=1;rowLines=0;fontStyle=1;strokeColor=#9673a6;fontSize=16;fillColor=#e1d5e7;" parent="WIyWlLk6GJQsqaUBKTNV-1" vertex="1">
          <mxGeometry x="477" y="100" width="350" height="391.10003662109375" as="geometry" />
        </mxCell>
        <mxCell id="jlqVL0GaNmHU8PocGjJK-6" value="" style="shape=tableRow;horizontal=0;startSize=0;swimlaneHead=0;swimlaneBody=0;top=0;left=0;bottom=0;right=0;collapsible=0;dropTarget=0;fillColor=none;points=[[0,0.5],[1,0.5]];portConstraint=eastwest;strokeColor=inherit;fontSize=16;" parent="jlqVL0GaNmHU8PocGjJK-5" vertex="1">
          <mxGeometry y="30" width="350" height="30" as="geometry" />
        </mxCell>
        <mxCell id="jlqVL0GaNmHU8PocGjJK-7" value="&lt;b&gt;PK&lt;/b&gt;" style="shape=partialRectangle;html=1;whiteSpace=wrap;connectable=0;fillColor=none;top=0;left=0;bottom=0;right=0;overflow=hidden;pointerEvents=1;strokeColor=inherit;fontSize=16;" parent="jlqVL0GaNmHU8PocGjJK-6" vertex="1">
          <mxGeometry width="78" height="30" as="geometry">
            <mxRectangle width="78" height="30" as="alternateBounds" />
          </mxGeometry>
        </mxCell>
        <mxCell id="jlqVL0GaNmHU8PocGjJK-8" value="FID" style="shape=partialRectangle;html=1;whiteSpace=wrap;connectable=0;fillColor=none;top=0;left=0;bottom=0;right=0;align=left;spacingLeft=6;overflow=hidden;strokeColor=inherit;fontSize=16;" parent="jlqVL0GaNmHU8PocGjJK-6" vertex="1">
          <mxGeometry x="78" width="272" height="30" as="geometry">
            <mxRectangle width="272" height="30" as="alternateBounds" />
          </mxGeometry>
        </mxCell>
        <mxCell id="jlqVL0GaNmHU8PocGjJK-9" value="" style="shape=tableRow;horizontal=0;startSize=0;swimlaneHead=0;swimlaneBody=0;top=0;left=0;bottom=0;right=0;collapsible=0;dropTarget=0;fillColor=none;points=[[0,0.5],[1,0.5]];portConstraint=eastwest;strokeColor=inherit;fontSize=16;" parent="jlqVL0GaNmHU8PocGjJK-5" vertex="1">
          <mxGeometry y="60" width="350" height="30" as="geometry" />
        </mxCell>
        <mxCell id="jlqVL0GaNmHU8PocGjJK-10" value="" style="shape=partialRectangle;html=1;whiteSpace=wrap;connectable=0;fillColor=none;top=0;left=0;bottom=0;right=0;overflow=hidden;strokeColor=inherit;fontSize=16;" parent="jlqVL0GaNmHU8PocGjJK-9" vertex="1">
          <mxGeometry width="78" height="30" as="geometry">
            <mxRectangle width="78" height="30" as="alternateBounds" />
          </mxGeometry>
        </mxCell>
        <mxCell id="jlqVL0GaNmHU8PocGjJK-11" value="Name varchar(150) not null" style="shape=partialRectangle;html=1;whiteSpace=wrap;connectable=0;fillColor=none;top=0;left=0;bottom=0;right=0;align=left;spacingLeft=6;overflow=hidden;strokeColor=inherit;fontSize=16;" parent="jlqVL0GaNmHU8PocGjJK-9" vertex="1">
          <mxGeometry x="78" width="272" height="30" as="geometry">
            <mxRectangle width="272" height="30" as="alternateBounds" />
          </mxGeometry>
        </mxCell>
        <mxCell id="jlqVL0GaNmHU8PocGjJK-18" value="" style="shape=tableRow;horizontal=0;startSize=0;swimlaneHead=0;swimlaneBody=0;top=0;left=0;bottom=0;right=0;collapsible=0;dropTarget=0;fillColor=none;points=[[0,0.5],[1,0.5]];portConstraint=eastwest;strokeColor=inherit;fontSize=16;" parent="jlqVL0GaNmHU8PocGjJK-5" vertex="1">
          <mxGeometry y="90" width="350" height="30" as="geometry" />
        </mxCell>
        <mxCell id="jlqVL0GaNmHU8PocGjJK-19" value="" style="shape=partialRectangle;html=1;whiteSpace=wrap;connectable=0;fillColor=none;top=0;left=0;bottom=0;right=0;overflow=hidden;strokeColor=inherit;fontSize=16;" parent="jlqVL0GaNmHU8PocGjJK-18" vertex="1">
          <mxGeometry width="78" height="30" as="geometry">
            <mxRectangle width="78" height="30" as="alternateBounds" />
          </mxGeometry>
        </mxCell>
        <mxCell id="jlqVL0GaNmHU8PocGjJK-20" value="Adress varchar(200) not null" style="shape=partialRectangle;html=1;whiteSpace=wrap;connectable=0;fillColor=none;top=0;left=0;bottom=0;right=0;align=left;spacingLeft=6;overflow=hidden;strokeColor=inherit;fontSize=16;" parent="jlqVL0GaNmHU8PocGjJK-18" vertex="1">
          <mxGeometry x="78" width="272" height="30" as="geometry">
            <mxRectangle width="272" height="30" as="alternateBounds" />
          </mxGeometry>
        </mxCell>
        <mxCell id="jlqVL0GaNmHU8PocGjJK-21" value="" style="shape=tableRow;horizontal=0;startSize=0;swimlaneHead=0;swimlaneBody=0;top=0;left=0;bottom=0;right=0;collapsible=0;dropTarget=0;fillColor=none;points=[[0,0.5],[1,0.5]];portConstraint=eastwest;strokeColor=inherit;fontSize=16;" parent="jlqVL0GaNmHU8PocGjJK-5" vertex="1">
          <mxGeometry y="120" width="350" height="30" as="geometry" />
        </mxCell>
        <mxCell id="jlqVL0GaNmHU8PocGjJK-22" value="&lt;b&gt;FK&lt;/b&gt;" style="shape=partialRectangle;html=1;whiteSpace=wrap;connectable=0;fillColor=none;top=0;left=0;bottom=0;right=0;overflow=hidden;pointerEvents=1;strokeColor=inherit;fontSize=16;" parent="jlqVL0GaNmHU8PocGjJK-21" vertex="1">
          <mxGeometry width="78" height="30" as="geometry">
            <mxRectangle width="78" height="30" as="alternateBounds" />
          </mxGeometry>
        </mxCell>
        <mxCell id="jlqVL0GaNmHU8PocGjJK-23" value="Neighborhood_id integer not null" style="shape=partialRectangle;html=1;whiteSpace=wrap;connectable=0;fillColor=none;top=0;left=0;bottom=0;right=0;align=left;spacingLeft=6;overflow=hidden;strokeColor=inherit;fontSize=16;" parent="jlqVL0GaNmHU8PocGjJK-21" vertex="1">
          <mxGeometry x="78" width="272" height="30" as="geometry">
            <mxRectangle width="272" height="30" as="alternateBounds" />
          </mxGeometry>
        </mxCell>
        <mxCell id="jlqVL0GaNmHU8PocGjJK-30" value="" style="shape=tableRow;horizontal=0;startSize=0;swimlaneHead=0;swimlaneBody=0;top=0;left=0;bottom=0;right=0;collapsible=0;dropTarget=0;fillColor=none;points=[[0,0.5],[1,0.5]];portConstraint=eastwest;strokeColor=inherit;fontSize=16;" parent="jlqVL0GaNmHU8PocGjJK-5" vertex="1">
          <mxGeometry y="150" width="350" height="30" as="geometry" />
        </mxCell>
        <mxCell id="jlqVL0GaNmHU8PocGjJK-31" value="" style="shape=partialRectangle;html=1;whiteSpace=wrap;connectable=0;fillColor=none;top=0;left=0;bottom=0;right=0;overflow=hidden;pointerEvents=1;strokeColor=inherit;fontSize=16;" parent="jlqVL0GaNmHU8PocGjJK-30" vertex="1">
          <mxGeometry width="78" height="30" as="geometry">
            <mxRectangle width="78" height="30" as="alternateBounds" />
          </mxGeometry>
        </mxCell>
        <mxCell id="jlqVL0GaNmHU8PocGjJK-32" value="Phone_number varchar(15)" style="shape=partialRectangle;html=1;whiteSpace=wrap;connectable=0;fillColor=none;top=0;left=0;bottom=0;right=0;align=left;spacingLeft=6;overflow=hidden;strokeColor=inherit;fontSize=16;" parent="jlqVL0GaNmHU8PocGjJK-30" vertex="1">
          <mxGeometry x="78" width="272" height="30" as="geometry">
            <mxRectangle width="272" height="30" as="alternateBounds" />
          </mxGeometry>
        </mxCell>
        <mxCell id="jlqVL0GaNmHU8PocGjJK-33" value="" style="shape=tableRow;horizontal=0;startSize=0;swimlaneHead=0;swimlaneBody=0;top=0;left=0;bottom=0;right=0;collapsible=0;dropTarget=0;fillColor=none;points=[[0,0.5],[1,0.5]];portConstraint=eastwest;strokeColor=inherit;fontSize=16;" parent="jlqVL0GaNmHU8PocGjJK-5" vertex="1">
          <mxGeometry y="180" width="350" height="30" as="geometry" />
        </mxCell>
        <mxCell id="jlqVL0GaNmHU8PocGjJK-34" value="" style="shape=partialRectangle;html=1;whiteSpace=wrap;connectable=0;fillColor=none;top=0;left=0;bottom=0;right=0;overflow=hidden;strokeColor=inherit;fontSize=16;" parent="jlqVL0GaNmHU8PocGjJK-33" vertex="1">
          <mxGeometry width="78" height="30" as="geometry">
            <mxRectangle width="78" height="30" as="alternateBounds" />
          </mxGeometry>
        </mxCell>
        <mxCell id="jlqVL0GaNmHU8PocGjJK-35" value="Website varchar(512)" style="shape=partialRectangle;html=1;whiteSpace=wrap;connectable=0;fillColor=none;top=0;left=0;bottom=0;right=0;align=left;spacingLeft=6;overflow=hidden;strokeColor=inherit;fontSize=16;" parent="jlqVL0GaNmHU8PocGjJK-33" vertex="1">
          <mxGeometry x="78" width="272" height="30" as="geometry">
            <mxRectangle width="272" height="30" as="alternateBounds" />
          </mxGeometry>
        </mxCell>
        <mxCell id="jlqVL0GaNmHU8PocGjJK-36" value="" style="shape=tableRow;horizontal=0;startSize=0;swimlaneHead=0;swimlaneBody=0;top=0;left=0;bottom=0;right=0;collapsible=0;dropTarget=0;fillColor=none;points=[[0,0.5],[1,0.5]];portConstraint=eastwest;strokeColor=inherit;fontSize=16;" parent="jlqVL0GaNmHU8PocGjJK-5" vertex="1">
          <mxGeometry y="210" width="350" height="30" as="geometry" />
        </mxCell>
        <mxCell id="jlqVL0GaNmHU8PocGjJK-37" value="&lt;b&gt;FK&lt;/b&gt;" style="shape=partialRectangle;html=1;whiteSpace=wrap;connectable=0;fillColor=none;top=0;left=0;bottom=0;right=0;overflow=hidden;strokeColor=inherit;fontSize=16;" parent="jlqVL0GaNmHU8PocGjJK-36" vertex="1">
          <mxGeometry width="78" height="30" as="geometry">
            <mxRectangle width="78" height="30" as="alternateBounds" />
          </mxGeometry>
        </mxCell>
        <mxCell id="jlqVL0GaNmHU8PocGjJK-38" value="Atraction_type integer not null" style="shape=partialRectangle;html=1;whiteSpace=wrap;connectable=0;fillColor=none;top=0;left=0;bottom=0;right=0;align=left;spacingLeft=6;overflow=hidden;strokeColor=inherit;fontSize=16;" parent="jlqVL0GaNmHU8PocGjJK-36" vertex="1">
          <mxGeometry x="78" width="272" height="30" as="geometry">
            <mxRectangle width="272" height="30" as="alternateBounds" />
          </mxGeometry>
        </mxCell>
        <mxCell id="jlqVL0GaNmHU8PocGjJK-39" value="" style="shape=tableRow;horizontal=0;startSize=0;swimlaneHead=0;swimlaneBody=0;top=0;left=0;bottom=0;right=0;collapsible=0;dropTarget=0;fillColor=none;points=[[0,0.5],[1,0.5]];portConstraint=eastwest;strokeColor=inherit;fontSize=16;" parent="jlqVL0GaNmHU8PocGjJK-5" vertex="1">
          <mxGeometry y="240" width="350" height="30" as="geometry" />
        </mxCell>
        <mxCell id="jlqVL0GaNmHU8PocGjJK-40" value="" style="shape=partialRectangle;html=1;whiteSpace=wrap;connectable=0;fillColor=none;top=0;left=0;bottom=0;right=0;overflow=hidden;pointerEvents=1;strokeColor=inherit;fontSize=16;" parent="jlqVL0GaNmHU8PocGjJK-39" vertex="1">
          <mxGeometry width="78" height="30" as="geometry">
            <mxRectangle width="78" height="30" as="alternateBounds" />
          </mxGeometry>
        </mxCell>
        <mxCell id="jlqVL0GaNmHU8PocGjJK-41" value="Start_date date not null" style="shape=partialRectangle;html=1;whiteSpace=wrap;connectable=0;fillColor=none;top=0;left=0;bottom=0;right=0;align=left;spacingLeft=6;overflow=hidden;strokeColor=inherit;fontSize=16;" parent="jlqVL0GaNmHU8PocGjJK-39" vertex="1">
          <mxGeometry x="78" width="272" height="30" as="geometry">
            <mxRectangle width="272" height="30" as="alternateBounds" />
          </mxGeometry>
        </mxCell>
        <mxCell id="jlqVL0GaNmHU8PocGjJK-27" value="" style="shape=tableRow;horizontal=0;startSize=0;swimlaneHead=0;swimlaneBody=0;top=0;left=0;bottom=0;right=0;collapsible=0;dropTarget=0;fillColor=none;points=[[0,0.5],[1,0.5]];portConstraint=eastwest;strokeColor=inherit;fontSize=16;" parent="jlqVL0GaNmHU8PocGjJK-5" vertex="1">
          <mxGeometry y="270" width="350" height="30" as="geometry" />
        </mxCell>
        <mxCell id="jlqVL0GaNmHU8PocGjJK-28" value="" style="shape=partialRectangle;html=1;whiteSpace=wrap;connectable=0;fillColor=none;top=0;left=0;bottom=0;right=0;overflow=hidden;strokeColor=inherit;fontSize=16;" parent="jlqVL0GaNmHU8PocGjJK-27" vertex="1">
          <mxGeometry width="78" height="30" as="geometry">
            <mxRectangle width="78" height="30" as="alternateBounds" />
          </mxGeometry>
        </mxCell>
        <mxCell id="jlqVL0GaNmHU8PocGjJK-29" value="End_date date not null" style="shape=partialRectangle;html=1;whiteSpace=wrap;connectable=0;fillColor=none;top=0;left=0;bottom=0;right=0;align=left;spacingLeft=6;overflow=hidden;strokeColor=inherit;fontSize=16;" parent="jlqVL0GaNmHU8PocGjJK-27" vertex="1">
          <mxGeometry x="78" width="272" height="30" as="geometry">
            <mxRectangle width="272" height="30" as="alternateBounds" />
          </mxGeometry>
        </mxCell>
        <mxCell id="jlqVL0GaNmHU8PocGjJK-24" value="" style="shape=tableRow;horizontal=0;startSize=0;swimlaneHead=0;swimlaneBody=0;top=0;left=0;bottom=0;right=0;collapsible=0;dropTarget=0;fillColor=none;points=[[0,0.5],[1,0.5]];portConstraint=eastwest;strokeColor=inherit;fontSize=16;" parent="jlqVL0GaNmHU8PocGjJK-5" vertex="1">
          <mxGeometry y="300" width="350" height="30" as="geometry" />
        </mxCell>
        <mxCell id="jlqVL0GaNmHU8PocGjJK-25" value="&lt;b&gt;FK&lt;/b&gt;" style="shape=partialRectangle;html=1;whiteSpace=wrap;connectable=0;fillColor=none;top=0;left=0;bottom=0;right=0;overflow=hidden;strokeColor=inherit;fontSize=16;" parent="jlqVL0GaNmHU8PocGjJK-24" vertex="1">
          <mxGeometry width="78" height="30" as="geometry">
            <mxRectangle width="78" height="30" as="alternateBounds" />
          </mxGeometry>
        </mxCell>
        <mxCell id="jlqVL0GaNmHU8PocGjJK-26" value="Employee_id integer not null" style="shape=partialRectangle;html=1;whiteSpace=wrap;connectable=0;fillColor=none;top=0;left=0;bottom=0;right=0;align=left;spacingLeft=6;overflow=hidden;strokeColor=inherit;fontSize=16;" parent="jlqVL0GaNmHU8PocGjJK-24" vertex="1">
          <mxGeometry x="78" width="272" height="30" as="geometry">
            <mxRectangle width="272" height="30" as="alternateBounds" />
          </mxGeometry>
        </mxCell>
        <mxCell id="jlqVL0GaNmHU8PocGjJK-15" value="" style="shape=tableRow;horizontal=0;startSize=0;swimlaneHead=0;swimlaneBody=0;top=0;left=0;bottom=0;right=0;collapsible=0;dropTarget=0;fillColor=none;points=[[0,0.5],[1,0.5]];portConstraint=eastwest;strokeColor=inherit;fontSize=16;" parent="jlqVL0GaNmHU8PocGjJK-5" vertex="1">
          <mxGeometry y="330" width="350" height="30" as="geometry" />
        </mxCell>
        <mxCell id="jlqVL0GaNmHU8PocGjJK-16" value="" style="shape=partialRectangle;html=1;whiteSpace=wrap;connectable=0;fillColor=none;top=0;left=0;bottom=0;right=0;overflow=hidden;strokeColor=inherit;fontSize=16;" parent="jlqVL0GaNmHU8PocGjJK-15" vertex="1">
          <mxGeometry width="78" height="30" as="geometry">
            <mxRectangle width="78" height="30" as="alternateBounds" />
          </mxGeometry>
        </mxCell>
        <mxCell id="jlqVL0GaNmHU8PocGjJK-17" value="Geom geometry(point) not null" style="shape=partialRectangle;html=1;whiteSpace=wrap;connectable=0;fillColor=none;top=0;left=0;bottom=0;right=0;align=left;spacingLeft=6;overflow=hidden;strokeColor=inherit;fontSize=16;" parent="jlqVL0GaNmHU8PocGjJK-15" vertex="1">
          <mxGeometry x="78" width="272" height="30" as="geometry">
            <mxRectangle width="272" height="30" as="alternateBounds" />
          </mxGeometry>
        </mxCell>
        <mxCell id="jlqVL0GaNmHU8PocGjJK-12" value="" style="shape=tableRow;horizontal=0;startSize=0;swimlaneHead=0;swimlaneBody=0;top=0;left=0;bottom=0;right=0;collapsible=0;dropTarget=0;fillColor=none;points=[[0,0.5],[1,0.5]];portConstraint=eastwest;strokeColor=inherit;fontSize=16;" parent="jlqVL0GaNmHU8PocGjJK-5" vertex="1">
          <mxGeometry y="360" width="350" height="31" as="geometry" />
        </mxCell>
        <mxCell id="jlqVL0GaNmHU8PocGjJK-13" value="" style="shape=partialRectangle;html=1;whiteSpace=wrap;connectable=0;fillColor=none;top=0;left=0;bottom=0;right=0;overflow=hidden;strokeColor=inherit;fontSize=16;" parent="jlqVL0GaNmHU8PocGjJK-12" vertex="1">
          <mxGeometry width="78" height="31" as="geometry">
            <mxRectangle width="78" height="31" as="alternateBounds" />
          </mxGeometry>
        </mxCell>
        <mxCell id="jlqVL0GaNmHU8PocGjJK-14" value="Description varchar(300)" style="shape=partialRectangle;html=1;whiteSpace=wrap;connectable=0;fillColor=none;top=0;left=0;bottom=0;right=0;align=left;spacingLeft=6;overflow=hidden;strokeColor=inherit;fontSize=16;" parent="jlqVL0GaNmHU8PocGjJK-12" vertex="1">
          <mxGeometry x="78" width="272" height="31" as="geometry">
            <mxRectangle width="272" height="31" as="alternateBounds" />
          </mxGeometry>
        </mxCell>
        <mxCell id="jlqVL0GaNmHU8PocGjJK-43" value="Employee" style="shape=table;startSize=30;container=1;collapsible=0;childLayout=tableLayout;fixedRows=1;rowLines=0;fontStyle=1;strokeColor=#b85450;fontSize=16;fillColor=#f8cecc;" parent="WIyWlLk6GJQsqaUBKTNV-1" vertex="1">
          <mxGeometry x="895" y="318" width="360" height="270" as="geometry" />
        </mxCell>
        <mxCell id="jlqVL0GaNmHU8PocGjJK-44" value="" style="shape=tableRow;horizontal=0;startSize=0;swimlaneHead=0;swimlaneBody=0;top=0;left=0;bottom=0;right=0;collapsible=0;dropTarget=0;fillColor=none;points=[[0,0.5],[1,0.5]];portConstraint=eastwest;strokeColor=inherit;fontSize=16;" parent="jlqVL0GaNmHU8PocGjJK-43" vertex="1">
          <mxGeometry y="30" width="360" height="30" as="geometry" />
        </mxCell>
        <mxCell id="jlqVL0GaNmHU8PocGjJK-45" value="&lt;b&gt;PK&lt;/b&gt;" style="shape=partialRectangle;html=1;whiteSpace=wrap;connectable=0;fillColor=none;top=0;left=0;bottom=0;right=0;overflow=hidden;pointerEvents=1;strokeColor=inherit;fontSize=16;" parent="jlqVL0GaNmHU8PocGjJK-44" vertex="1">
          <mxGeometry width="79" height="30" as="geometry">
            <mxRectangle width="79" height="30" as="alternateBounds" />
          </mxGeometry>
        </mxCell>
        <mxCell id="jlqVL0GaNmHU8PocGjJK-46" value="ID" style="shape=partialRectangle;html=1;whiteSpace=wrap;connectable=0;fillColor=none;top=0;left=0;bottom=0;right=0;align=left;spacingLeft=6;overflow=hidden;strokeColor=inherit;fontSize=16;" parent="jlqVL0GaNmHU8PocGjJK-44" vertex="1">
          <mxGeometry x="79" width="281" height="30" as="geometry">
            <mxRectangle width="281" height="30" as="alternateBounds" />
          </mxGeometry>
        </mxCell>
        <mxCell id="jlqVL0GaNmHU8PocGjJK-47" value="" style="shape=tableRow;horizontal=0;startSize=0;swimlaneHead=0;swimlaneBody=0;top=0;left=0;bottom=0;right=0;collapsible=0;dropTarget=0;fillColor=none;points=[[0,0.5],[1,0.5]];portConstraint=eastwest;strokeColor=inherit;fontSize=16;" parent="jlqVL0GaNmHU8PocGjJK-43" vertex="1">
          <mxGeometry y="60" width="360" height="30" as="geometry" />
        </mxCell>
        <mxCell id="jlqVL0GaNmHU8PocGjJK-48" value="" style="shape=partialRectangle;html=1;whiteSpace=wrap;connectable=0;fillColor=none;top=0;left=0;bottom=0;right=0;overflow=hidden;strokeColor=inherit;fontSize=16;" parent="jlqVL0GaNmHU8PocGjJK-47" vertex="1">
          <mxGeometry width="79" height="30" as="geometry">
            <mxRectangle width="79" height="30" as="alternateBounds" />
          </mxGeometry>
        </mxCell>
        <mxCell id="jlqVL0GaNmHU8PocGjJK-49" value="First_name varchar(50) not null" style="shape=partialRectangle;html=1;whiteSpace=wrap;connectable=0;fillColor=none;top=0;left=0;bottom=0;right=0;align=left;spacingLeft=6;overflow=hidden;strokeColor=inherit;fontSize=16;" parent="jlqVL0GaNmHU8PocGjJK-47" vertex="1">
          <mxGeometry x="79" width="281" height="30" as="geometry">
            <mxRectangle width="281" height="30" as="alternateBounds" />
          </mxGeometry>
        </mxCell>
        <mxCell id="jlqVL0GaNmHU8PocGjJK-50" value="" style="shape=tableRow;horizontal=0;startSize=0;swimlaneHead=0;swimlaneBody=0;top=0;left=0;bottom=0;right=0;collapsible=0;dropTarget=0;fillColor=none;points=[[0,0.5],[1,0.5]];portConstraint=eastwest;strokeColor=inherit;fontSize=16;" parent="jlqVL0GaNmHU8PocGjJK-43" vertex="1">
          <mxGeometry y="90" width="360" height="30" as="geometry" />
        </mxCell>
        <mxCell id="jlqVL0GaNmHU8PocGjJK-51" value="" style="shape=partialRectangle;html=1;whiteSpace=wrap;connectable=0;fillColor=none;top=0;left=0;bottom=0;right=0;overflow=hidden;strokeColor=inherit;fontSize=16;" parent="jlqVL0GaNmHU8PocGjJK-50" vertex="1">
          <mxGeometry width="79" height="30" as="geometry">
            <mxRectangle width="79" height="30" as="alternateBounds" />
          </mxGeometry>
        </mxCell>
        <mxCell id="jlqVL0GaNmHU8PocGjJK-52" value="Last_name varchar(50) not null" style="shape=partialRectangle;html=1;whiteSpace=wrap;connectable=0;fillColor=none;top=0;left=0;bottom=0;right=0;align=left;spacingLeft=6;overflow=hidden;strokeColor=inherit;fontSize=16;" parent="jlqVL0GaNmHU8PocGjJK-50" vertex="1">
          <mxGeometry x="79" width="281" height="30" as="geometry">
            <mxRectangle width="281" height="30" as="alternateBounds" />
          </mxGeometry>
        </mxCell>
        <mxCell id="jlqVL0GaNmHU8PocGjJK-60" value="" style="shape=tableRow;horizontal=0;startSize=0;swimlaneHead=0;swimlaneBody=0;top=0;left=0;bottom=0;right=0;collapsible=0;dropTarget=0;fillColor=none;points=[[0,0.5],[1,0.5]];portConstraint=eastwest;strokeColor=inherit;fontSize=16;" parent="jlqVL0GaNmHU8PocGjJK-43" vertex="1">
          <mxGeometry y="120" width="360" height="30" as="geometry" />
        </mxCell>
        <mxCell id="jlqVL0GaNmHU8PocGjJK-61" value="" style="shape=partialRectangle;html=1;whiteSpace=wrap;connectable=0;fillColor=none;top=0;left=0;bottom=0;right=0;overflow=hidden;strokeColor=inherit;fontSize=16;" parent="jlqVL0GaNmHU8PocGjJK-60" vertex="1">
          <mxGeometry width="79" height="30" as="geometry">
            <mxRectangle width="79" height="30" as="alternateBounds" />
          </mxGeometry>
        </mxCell>
        <mxCell id="jlqVL0GaNmHU8PocGjJK-62" value="Adress varchar(200) not null" style="shape=partialRectangle;html=1;whiteSpace=wrap;connectable=0;fillColor=none;top=0;left=0;bottom=0;right=0;align=left;spacingLeft=6;overflow=hidden;strokeColor=inherit;fontSize=16;" parent="jlqVL0GaNmHU8PocGjJK-60" vertex="1">
          <mxGeometry x="79" width="281" height="30" as="geometry">
            <mxRectangle width="281" height="30" as="alternateBounds" />
          </mxGeometry>
        </mxCell>
        <mxCell id="jlqVL0GaNmHU8PocGjJK-63" value="" style="shape=tableRow;horizontal=0;startSize=0;swimlaneHead=0;swimlaneBody=0;top=0;left=0;bottom=0;right=0;collapsible=0;dropTarget=0;fillColor=none;points=[[0,0.5],[1,0.5]];portConstraint=eastwest;strokeColor=inherit;fontSize=16;" parent="jlqVL0GaNmHU8PocGjJK-43" vertex="1">
          <mxGeometry y="150" width="360" height="30" as="geometry" />
        </mxCell>
        <mxCell id="jlqVL0GaNmHU8PocGjJK-64" value="" style="shape=partialRectangle;html=1;whiteSpace=wrap;connectable=0;fillColor=none;top=0;left=0;bottom=0;right=0;overflow=hidden;strokeColor=inherit;fontSize=16;" parent="jlqVL0GaNmHU8PocGjJK-63" vertex="1">
          <mxGeometry width="79" height="30" as="geometry">
            <mxRectangle width="79" height="30" as="alternateBounds" />
          </mxGeometry>
        </mxCell>
        <mxCell id="jlqVL0GaNmHU8PocGjJK-65" value="Phone_number&amp;nbsp; varchar(15) not null" style="shape=partialRectangle;html=1;whiteSpace=wrap;connectable=0;fillColor=none;top=0;left=0;bottom=0;right=0;align=left;spacingLeft=6;overflow=hidden;strokeColor=inherit;fontSize=16;" parent="jlqVL0GaNmHU8PocGjJK-63" vertex="1">
          <mxGeometry x="79" width="281" height="30" as="geometry">
            <mxRectangle width="281" height="30" as="alternateBounds" />
          </mxGeometry>
        </mxCell>
        <mxCell id="jlqVL0GaNmHU8PocGjJK-66" value="" style="shape=tableRow;horizontal=0;startSize=0;swimlaneHead=0;swimlaneBody=0;top=0;left=0;bottom=0;right=0;collapsible=0;dropTarget=0;fillColor=none;points=[[0,0.5],[1,0.5]];portConstraint=eastwest;strokeColor=inherit;fontSize=16;" parent="jlqVL0GaNmHU8PocGjJK-43" vertex="1">
          <mxGeometry y="180" width="360" height="30" as="geometry" />
        </mxCell>
        <mxCell id="jlqVL0GaNmHU8PocGjJK-67" value="" style="shape=partialRectangle;html=1;whiteSpace=wrap;connectable=0;fillColor=none;top=0;left=0;bottom=0;right=0;overflow=hidden;strokeColor=inherit;fontSize=16;" parent="jlqVL0GaNmHU8PocGjJK-66" vertex="1">
          <mxGeometry width="79" height="30" as="geometry">
            <mxRectangle width="79" height="30" as="alternateBounds" />
          </mxGeometry>
        </mxCell>
        <mxCell id="jlqVL0GaNmHU8PocGjJK-68" value="Sex character (1) not null" style="shape=partialRectangle;html=1;whiteSpace=wrap;connectable=0;fillColor=none;top=0;left=0;bottom=0;right=0;align=left;spacingLeft=6;overflow=hidden;strokeColor=inherit;fontSize=16;" parent="jlqVL0GaNmHU8PocGjJK-66" vertex="1">
          <mxGeometry x="79" width="281" height="30" as="geometry">
            <mxRectangle width="281" height="30" as="alternateBounds" />
          </mxGeometry>
        </mxCell>
        <mxCell id="jlqVL0GaNmHU8PocGjJK-69" value="" style="shape=tableRow;horizontal=0;startSize=0;swimlaneHead=0;swimlaneBody=0;top=0;left=0;bottom=0;right=0;collapsible=0;dropTarget=0;fillColor=none;points=[[0,0.5],[1,0.5]];portConstraint=eastwest;strokeColor=inherit;fontSize=16;" parent="jlqVL0GaNmHU8PocGjJK-43" vertex="1">
          <mxGeometry y="210" width="360" height="30" as="geometry" />
        </mxCell>
        <mxCell id="jlqVL0GaNmHU8PocGjJK-70" value="" style="shape=partialRectangle;html=1;whiteSpace=wrap;connectable=0;fillColor=none;top=0;left=0;bottom=0;right=0;overflow=hidden;strokeColor=inherit;fontSize=16;" parent="jlqVL0GaNmHU8PocGjJK-69" vertex="1">
          <mxGeometry width="79" height="30" as="geometry">
            <mxRectangle width="79" height="30" as="alternateBounds" />
          </mxGeometry>
        </mxCell>
        <mxCell id="jlqVL0GaNmHU8PocGjJK-71" value="Age integer not null" style="shape=partialRectangle;html=1;whiteSpace=wrap;connectable=0;fillColor=none;top=0;left=0;bottom=0;right=0;align=left;spacingLeft=6;overflow=hidden;strokeColor=inherit;fontSize=16;" parent="jlqVL0GaNmHU8PocGjJK-69" vertex="1">
          <mxGeometry x="79" width="281" height="30" as="geometry">
            <mxRectangle width="281" height="30" as="alternateBounds" />
          </mxGeometry>
        </mxCell>
        <mxCell id="jlqVL0GaNmHU8PocGjJK-90" value="" style="shape=tableRow;horizontal=0;startSize=0;swimlaneHead=0;swimlaneBody=0;top=0;left=0;bottom=0;right=0;collapsible=0;dropTarget=0;fillColor=none;points=[[0,0.5],[1,0.5]];portConstraint=eastwest;strokeColor=inherit;fontSize=16;" parent="jlqVL0GaNmHU8PocGjJK-43" vertex="1">
          <mxGeometry y="240" width="360" height="30" as="geometry" />
        </mxCell>
        <mxCell id="jlqVL0GaNmHU8PocGjJK-91" value="" style="shape=partialRectangle;html=1;whiteSpace=wrap;connectable=0;fillColor=none;top=0;left=0;bottom=0;right=0;overflow=hidden;strokeColor=inherit;fontSize=16;" parent="jlqVL0GaNmHU8PocGjJK-90" vertex="1">
          <mxGeometry width="79" height="30" as="geometry">
            <mxRectangle width="79" height="30" as="alternateBounds" />
          </mxGeometry>
        </mxCell>
        <mxCell id="jlqVL0GaNmHU8PocGjJK-92" value="Email_address nvarchar(255) not null" style="shape=partialRectangle;html=1;whiteSpace=wrap;connectable=0;fillColor=none;top=0;left=0;bottom=0;right=0;align=left;spacingLeft=6;overflow=hidden;strokeColor=inherit;fontSize=16;" parent="jlqVL0GaNmHU8PocGjJK-90" vertex="1">
          <mxGeometry x="79" width="281" height="30" as="geometry">
            <mxRectangle width="281" height="30" as="alternateBounds" />
          </mxGeometry>
        </mxCell>
        <mxCell id="jlqVL0GaNmHU8PocGjJK-72" value="Members" style="shape=table;startSize=34;container=1;collapsible=0;childLayout=tableLayout;fixedRows=1;rowLines=0;fontStyle=1;strokeColor=#b85450;fontSize=16;fillColor=#f8cecc;" parent="WIyWlLk6GJQsqaUBKTNV-1" vertex="1">
          <mxGeometry x="1173" y="27" width="370" height="218" as="geometry" />
        </mxCell>
        <mxCell id="jlqVL0GaNmHU8PocGjJK-73" value="" style="shape=tableRow;horizontal=0;startSize=0;swimlaneHead=0;swimlaneBody=0;top=0;left=0;bottom=0;right=0;collapsible=0;dropTarget=0;fillColor=none;points=[[0,0.5],[1,0.5]];portConstraint=eastwest;strokeColor=inherit;fontSize=16;" parent="jlqVL0GaNmHU8PocGjJK-72" vertex="1">
          <mxGeometry y="34" width="370" height="30" as="geometry" />
        </mxCell>
        <mxCell id="jlqVL0GaNmHU8PocGjJK-74" value="&lt;b&gt;PK&lt;/b&gt;" style="shape=partialRectangle;html=1;whiteSpace=wrap;connectable=0;fillColor=none;top=0;left=0;bottom=0;right=0;overflow=hidden;pointerEvents=1;strokeColor=inherit;fontSize=16;" parent="jlqVL0GaNmHU8PocGjJK-73" vertex="1">
          <mxGeometry width="82" height="30" as="geometry">
            <mxRectangle width="82" height="30" as="alternateBounds" />
          </mxGeometry>
        </mxCell>
        <mxCell id="jlqVL0GaNmHU8PocGjJK-75" value="ID" style="shape=partialRectangle;html=1;whiteSpace=wrap;connectable=0;fillColor=none;top=0;left=0;bottom=0;right=0;align=left;spacingLeft=6;overflow=hidden;strokeColor=inherit;fontSize=16;" parent="jlqVL0GaNmHU8PocGjJK-73" vertex="1">
          <mxGeometry x="82" width="288" height="30" as="geometry">
            <mxRectangle width="288" height="30" as="alternateBounds" />
          </mxGeometry>
        </mxCell>
        <mxCell id="jlqVL0GaNmHU8PocGjJK-76" value="" style="shape=tableRow;horizontal=0;startSize=0;swimlaneHead=0;swimlaneBody=0;top=0;left=0;bottom=0;right=0;collapsible=0;dropTarget=0;fillColor=none;points=[[0,0.5],[1,0.5]];portConstraint=eastwest;strokeColor=inherit;fontSize=16;" parent="jlqVL0GaNmHU8PocGjJK-72" vertex="1">
          <mxGeometry y="64" width="370" height="30" as="geometry" />
        </mxCell>
        <mxCell id="jlqVL0GaNmHU8PocGjJK-77" value="" style="shape=partialRectangle;html=1;whiteSpace=wrap;connectable=0;fillColor=none;top=0;left=0;bottom=0;right=0;overflow=hidden;strokeColor=inherit;fontSize=16;" parent="jlqVL0GaNmHU8PocGjJK-76" vertex="1">
          <mxGeometry width="82" height="30" as="geometry">
            <mxRectangle width="82" height="30" as="alternateBounds" />
          </mxGeometry>
        </mxCell>
        <mxCell id="jlqVL0GaNmHU8PocGjJK-78" value="First_name varchar(50) not null" style="shape=partialRectangle;html=1;whiteSpace=wrap;connectable=0;fillColor=none;top=0;left=0;bottom=0;right=0;align=left;spacingLeft=6;overflow=hidden;strokeColor=inherit;fontSize=16;" parent="jlqVL0GaNmHU8PocGjJK-76" vertex="1">
          <mxGeometry x="82" width="288" height="30" as="geometry">
            <mxRectangle width="288" height="30" as="alternateBounds" />
          </mxGeometry>
        </mxCell>
        <mxCell id="jlqVL0GaNmHU8PocGjJK-79" value="" style="shape=tableRow;horizontal=0;startSize=0;swimlaneHead=0;swimlaneBody=0;top=0;left=0;bottom=0;right=0;collapsible=0;dropTarget=0;fillColor=none;points=[[0,0.5],[1,0.5]];portConstraint=eastwest;strokeColor=inherit;fontSize=16;" parent="jlqVL0GaNmHU8PocGjJK-72" vertex="1">
          <mxGeometry y="94" width="370" height="30" as="geometry" />
        </mxCell>
        <mxCell id="jlqVL0GaNmHU8PocGjJK-80" value="" style="shape=partialRectangle;html=1;whiteSpace=wrap;connectable=0;fillColor=none;top=0;left=0;bottom=0;right=0;overflow=hidden;strokeColor=inherit;fontSize=16;" parent="jlqVL0GaNmHU8PocGjJK-79" vertex="1">
          <mxGeometry width="82" height="30" as="geometry">
            <mxRectangle width="82" height="30" as="alternateBounds" />
          </mxGeometry>
        </mxCell>
        <mxCell id="jlqVL0GaNmHU8PocGjJK-81" value="Last_name varchar(50) not null" style="shape=partialRectangle;html=1;whiteSpace=wrap;connectable=0;fillColor=none;top=0;left=0;bottom=0;right=0;align=left;spacingLeft=6;overflow=hidden;strokeColor=inherit;fontSize=16;" parent="jlqVL0GaNmHU8PocGjJK-79" vertex="1">
          <mxGeometry x="82" width="288" height="30" as="geometry">
            <mxRectangle width="288" height="30" as="alternateBounds" />
          </mxGeometry>
        </mxCell>
        <mxCell id="jlqVL0GaNmHU8PocGjJK-93" value="" style="shape=tableRow;horizontal=0;startSize=0;swimlaneHead=0;swimlaneBody=0;top=0;left=0;bottom=0;right=0;collapsible=0;dropTarget=0;fillColor=none;points=[[0,0.5],[1,0.5]];portConstraint=eastwest;strokeColor=inherit;fontSize=16;" parent="jlqVL0GaNmHU8PocGjJK-72" vertex="1">
          <mxGeometry y="124" width="370" height="30" as="geometry" />
        </mxCell>
        <mxCell id="jlqVL0GaNmHU8PocGjJK-94" value="" style="shape=partialRectangle;html=1;whiteSpace=wrap;connectable=0;fillColor=none;top=0;left=0;bottom=0;right=0;overflow=hidden;pointerEvents=1;strokeColor=inherit;fontSize=16;" parent="jlqVL0GaNmHU8PocGjJK-93" vertex="1">
          <mxGeometry width="82" height="30" as="geometry">
            <mxRectangle width="82" height="30" as="alternateBounds" />
          </mxGeometry>
        </mxCell>
        <mxCell id="jlqVL0GaNmHU8PocGjJK-95" value="Country_origin varchar(40) not null" style="shape=partialRectangle;html=1;whiteSpace=wrap;connectable=0;fillColor=none;top=0;left=0;bottom=0;right=0;align=left;spacingLeft=6;overflow=hidden;strokeColor=inherit;fontSize=16;" parent="jlqVL0GaNmHU8PocGjJK-93" vertex="1">
          <mxGeometry x="82" width="288" height="30" as="geometry">
            <mxRectangle width="288" height="30" as="alternateBounds" />
          </mxGeometry>
        </mxCell>
        <mxCell id="jlqVL0GaNmHU8PocGjJK-96" value="" style="shape=tableRow;horizontal=0;startSize=0;swimlaneHead=0;swimlaneBody=0;top=0;left=0;bottom=0;right=0;collapsible=0;dropTarget=0;fillColor=none;points=[[0,0.5],[1,0.5]];portConstraint=eastwest;strokeColor=inherit;fontSize=16;" parent="jlqVL0GaNmHU8PocGjJK-72" vertex="1">
          <mxGeometry y="154" width="370" height="34" as="geometry" />
        </mxCell>
        <mxCell id="jlqVL0GaNmHU8PocGjJK-97" value="" style="shape=partialRectangle;html=1;whiteSpace=wrap;connectable=0;fillColor=none;top=0;left=0;bottom=0;right=0;overflow=hidden;pointerEvents=1;strokeColor=inherit;fontSize=16;" parent="jlqVL0GaNmHU8PocGjJK-96" vertex="1">
          <mxGeometry width="82" height="34" as="geometry">
            <mxRectangle width="82" height="34" as="alternateBounds" />
          </mxGeometry>
        </mxCell>
        <mxCell id="jlqVL0GaNmHU8PocGjJK-98" value="Email_address nvarchar(255) not null" style="shape=partialRectangle;html=1;whiteSpace=wrap;connectable=0;fillColor=none;top=0;left=0;bottom=0;right=0;align=left;spacingLeft=6;overflow=hidden;strokeColor=inherit;fontSize=16;" parent="jlqVL0GaNmHU8PocGjJK-96" vertex="1">
          <mxGeometry x="82" width="288" height="34" as="geometry">
            <mxRectangle width="288" height="34" as="alternateBounds" />
          </mxGeometry>
        </mxCell>
        <mxCell id="jlqVL0GaNmHU8PocGjJK-99" value="" style="shape=tableRow;horizontal=0;startSize=0;swimlaneHead=0;swimlaneBody=0;top=0;left=0;bottom=0;right=0;collapsible=0;dropTarget=0;fillColor=none;points=[[0,0.5],[1,0.5]];portConstraint=eastwest;strokeColor=inherit;fontSize=16;" parent="jlqVL0GaNmHU8PocGjJK-72" vertex="1">
          <mxGeometry y="188" width="370" height="30" as="geometry" />
        </mxCell>
        <mxCell id="jlqVL0GaNmHU8PocGjJK-100" value="" style="shape=partialRectangle;html=1;whiteSpace=wrap;connectable=0;fillColor=none;top=0;left=0;bottom=0;right=0;overflow=hidden;pointerEvents=1;strokeColor=inherit;fontSize=16;" parent="jlqVL0GaNmHU8PocGjJK-99" vertex="1">
          <mxGeometry width="82" height="30" as="geometry">
            <mxRectangle width="82" height="30" as="alternateBounds" />
          </mxGeometry>
        </mxCell>
        <mxCell id="jlqVL0GaNmHU8PocGjJK-101" value="Age integer not null" style="shape=partialRectangle;html=1;whiteSpace=wrap;connectable=0;fillColor=none;top=0;left=0;bottom=0;right=0;align=left;spacingLeft=6;overflow=hidden;strokeColor=inherit;fontSize=16;" parent="jlqVL0GaNmHU8PocGjJK-99" vertex="1">
          <mxGeometry x="82" width="288" height="30" as="geometry">
            <mxRectangle width="288" height="30" as="alternateBounds" />
          </mxGeometry>
        </mxCell>
        <mxCell id="jlqVL0GaNmHU8PocGjJK-102" value="Health_facilities" style="shape=table;startSize=30;container=1;collapsible=0;childLayout=tableLayout;fixedRows=1;rowLines=0;fontStyle=1;strokeColor=#9673a6;fontSize=16;fillColor=#e1d5e7;" parent="WIyWlLk6GJQsqaUBKTNV-1" vertex="1">
          <mxGeometry x="5" y="278" width="350" height="255" as="geometry" />
        </mxCell>
        <mxCell id="jlqVL0GaNmHU8PocGjJK-103" value="" style="shape=tableRow;horizontal=0;startSize=0;swimlaneHead=0;swimlaneBody=0;top=0;left=0;bottom=0;right=0;collapsible=0;dropTarget=0;fillColor=none;points=[[0,0.5],[1,0.5]];portConstraint=eastwest;strokeColor=inherit;fontSize=16;" parent="jlqVL0GaNmHU8PocGjJK-102" vertex="1">
          <mxGeometry y="30" width="350" height="30" as="geometry" />
        </mxCell>
        <mxCell id="jlqVL0GaNmHU8PocGjJK-104" value="&lt;b&gt;PK&lt;/b&gt;" style="shape=partialRectangle;html=1;whiteSpace=wrap;connectable=0;fillColor=none;top=0;left=0;bottom=0;right=0;overflow=hidden;pointerEvents=1;strokeColor=inherit;fontSize=16;" parent="jlqVL0GaNmHU8PocGjJK-103" vertex="1">
          <mxGeometry width="78" height="30" as="geometry">
            <mxRectangle width="78" height="30" as="alternateBounds" />
          </mxGeometry>
        </mxCell>
        <mxCell id="jlqVL0GaNmHU8PocGjJK-105" value="ID" style="shape=partialRectangle;html=1;whiteSpace=wrap;connectable=0;fillColor=none;top=0;left=0;bottom=0;right=0;align=left;spacingLeft=6;overflow=hidden;strokeColor=inherit;fontSize=16;" parent="jlqVL0GaNmHU8PocGjJK-103" vertex="1">
          <mxGeometry x="78" width="272" height="30" as="geometry">
            <mxRectangle width="272" height="30" as="alternateBounds" />
          </mxGeometry>
        </mxCell>
        <mxCell id="jlqVL0GaNmHU8PocGjJK-106" value="" style="shape=tableRow;horizontal=0;startSize=0;swimlaneHead=0;swimlaneBody=0;top=0;left=0;bottom=0;right=0;collapsible=0;dropTarget=0;fillColor=none;points=[[0,0.5],[1,0.5]];portConstraint=eastwest;strokeColor=inherit;fontSize=16;" parent="jlqVL0GaNmHU8PocGjJK-102" vertex="1">
          <mxGeometry y="60" width="350" height="30" as="geometry" />
        </mxCell>
        <mxCell id="jlqVL0GaNmHU8PocGjJK-107" value="" style="shape=partialRectangle;html=1;whiteSpace=wrap;connectable=0;fillColor=none;top=0;left=0;bottom=0;right=0;overflow=hidden;strokeColor=inherit;fontSize=16;" parent="jlqVL0GaNmHU8PocGjJK-106" vertex="1">
          <mxGeometry width="78" height="30" as="geometry">
            <mxRectangle width="78" height="30" as="alternateBounds" />
          </mxGeometry>
        </mxCell>
        <mxCell id="jlqVL0GaNmHU8PocGjJK-108" value="Name varchar(100) not null" style="shape=partialRectangle;html=1;whiteSpace=wrap;connectable=0;fillColor=none;top=0;left=0;bottom=0;right=0;align=left;spacingLeft=6;overflow=hidden;strokeColor=inherit;fontSize=16;" parent="jlqVL0GaNmHU8PocGjJK-106" vertex="1">
          <mxGeometry x="78" width="272" height="30" as="geometry">
            <mxRectangle width="272" height="30" as="alternateBounds" />
          </mxGeometry>
        </mxCell>
        <mxCell id="jlqVL0GaNmHU8PocGjJK-109" value="" style="shape=tableRow;horizontal=0;startSize=0;swimlaneHead=0;swimlaneBody=0;top=0;left=0;bottom=0;right=0;collapsible=0;dropTarget=0;fillColor=none;points=[[0,0.5],[1,0.5]];portConstraint=eastwest;strokeColor=inherit;fontSize=16;" parent="jlqVL0GaNmHU8PocGjJK-102" vertex="1">
          <mxGeometry y="90" width="350" height="36" as="geometry" />
        </mxCell>
        <mxCell id="jlqVL0GaNmHU8PocGjJK-110" value="" style="shape=partialRectangle;html=1;whiteSpace=wrap;connectable=0;fillColor=none;top=0;left=0;bottom=0;right=0;overflow=hidden;strokeColor=inherit;fontSize=16;" parent="jlqVL0GaNmHU8PocGjJK-109" vertex="1">
          <mxGeometry width="78" height="36" as="geometry">
            <mxRectangle width="78" height="36" as="alternateBounds" />
          </mxGeometry>
        </mxCell>
        <mxCell id="jlqVL0GaNmHU8PocGjJK-111" value="Type varchar(40) not null" style="shape=partialRectangle;html=1;whiteSpace=wrap;connectable=0;fillColor=none;top=0;left=0;bottom=0;right=0;align=left;spacingLeft=6;overflow=hidden;strokeColor=inherit;fontSize=16;" parent="jlqVL0GaNmHU8PocGjJK-109" vertex="1">
          <mxGeometry x="78" width="272" height="36" as="geometry">
            <mxRectangle width="272" height="36" as="alternateBounds" />
          </mxGeometry>
        </mxCell>
        <mxCell id="jlqVL0GaNmHU8PocGjJK-112" value="" style="shape=tableRow;horizontal=0;startSize=0;swimlaneHead=0;swimlaneBody=0;top=0;left=0;bottom=0;right=0;collapsible=0;dropTarget=0;fillColor=none;points=[[0,0.5],[1,0.5]];portConstraint=eastwest;strokeColor=inherit;fontSize=16;" parent="jlqVL0GaNmHU8PocGjJK-102" vertex="1">
          <mxGeometry y="126" width="350" height="30" as="geometry" />
        </mxCell>
        <mxCell id="jlqVL0GaNmHU8PocGjJK-113" value="&lt;b&gt;FK&lt;/b&gt;" style="shape=partialRectangle;html=1;whiteSpace=wrap;connectable=0;fillColor=none;top=0;left=0;bottom=0;right=0;overflow=hidden;strokeColor=inherit;fontSize=16;" parent="jlqVL0GaNmHU8PocGjJK-112" vertex="1">
          <mxGeometry width="78" height="30" as="geometry">
            <mxRectangle width="78" height="30" as="alternateBounds" />
          </mxGeometry>
        </mxCell>
        <mxCell id="jlqVL0GaNmHU8PocGjJK-114" value="Neighborhood_id integer not null" style="shape=partialRectangle;html=1;whiteSpace=wrap;connectable=0;fillColor=none;top=0;left=0;bottom=0;right=0;align=left;spacingLeft=6;overflow=hidden;strokeColor=inherit;fontSize=16;" parent="jlqVL0GaNmHU8PocGjJK-112" vertex="1">
          <mxGeometry x="78" width="272" height="30" as="geometry">
            <mxRectangle width="272" height="30" as="alternateBounds" />
          </mxGeometry>
        </mxCell>
        <mxCell id="jlqVL0GaNmHU8PocGjJK-115" value="" style="shape=tableRow;horizontal=0;startSize=0;swimlaneHead=0;swimlaneBody=0;top=0;left=0;bottom=0;right=0;collapsible=0;dropTarget=0;fillColor=none;points=[[0,0.5],[1,0.5]];portConstraint=eastwest;strokeColor=inherit;fontSize=16;" parent="jlqVL0GaNmHU8PocGjJK-102" vertex="1">
          <mxGeometry y="156" width="350" height="30" as="geometry" />
        </mxCell>
        <mxCell id="jlqVL0GaNmHU8PocGjJK-116" value="" style="shape=partialRectangle;html=1;whiteSpace=wrap;connectable=0;fillColor=none;top=0;left=0;bottom=0;right=0;overflow=hidden;strokeColor=inherit;fontSize=16;" parent="jlqVL0GaNmHU8PocGjJK-115" vertex="1">
          <mxGeometry width="78" height="30" as="geometry">
            <mxRectangle width="78" height="30" as="alternateBounds" />
          </mxGeometry>
        </mxCell>
        <mxCell id="jlqVL0GaNmHU8PocGjJK-117" value="Geom geometry(point) not null" style="shape=partialRectangle;html=1;whiteSpace=wrap;connectable=0;fillColor=none;top=0;left=0;bottom=0;right=0;align=left;spacingLeft=6;overflow=hidden;strokeColor=inherit;fontSize=16;" parent="jlqVL0GaNmHU8PocGjJK-115" vertex="1">
          <mxGeometry x="78" width="272" height="30" as="geometry">
            <mxRectangle width="272" height="30" as="alternateBounds" />
          </mxGeometry>
        </mxCell>
        <mxCell id="jlqVL0GaNmHU8PocGjJK-122" value="" style="shape=tableRow;horizontal=0;startSize=0;swimlaneHead=0;swimlaneBody=0;top=0;left=0;bottom=0;right=0;collapsible=0;dropTarget=0;fillColor=none;points=[[0,0.5],[1,0.5]];portConstraint=eastwest;strokeColor=inherit;fontSize=16;" parent="jlqVL0GaNmHU8PocGjJK-102" vertex="1">
          <mxGeometry y="186" width="350" height="30" as="geometry" />
        </mxCell>
        <mxCell id="jlqVL0GaNmHU8PocGjJK-123" value="&lt;b&gt;FK&lt;/b&gt;" style="shape=partialRectangle;html=1;whiteSpace=wrap;connectable=0;fillColor=none;top=0;left=0;bottom=0;right=0;overflow=hidden;strokeColor=inherit;fontSize=16;" parent="jlqVL0GaNmHU8PocGjJK-122" vertex="1">
          <mxGeometry width="78" height="30" as="geometry">
            <mxRectangle width="78" height="30" as="alternateBounds" />
          </mxGeometry>
        </mxCell>
        <mxCell id="jlqVL0GaNmHU8PocGjJK-124" value="Employee_id integer not null" style="shape=partialRectangle;html=1;whiteSpace=wrap;connectable=0;fillColor=none;top=0;left=0;bottom=0;right=0;align=left;spacingLeft=6;overflow=hidden;strokeColor=inherit;fontSize=16;" parent="jlqVL0GaNmHU8PocGjJK-122" vertex="1">
          <mxGeometry x="78" width="272" height="30" as="geometry">
            <mxRectangle width="272" height="30" as="alternateBounds" />
          </mxGeometry>
        </mxCell>
        <mxCell id="jlqVL0GaNmHU8PocGjJK-125" value="Atraction_type" style="shape=table;startSize=30;container=1;collapsible=0;childLayout=tableLayout;fixedRows=1;rowLines=0;fontStyle=1;strokeColor=#6c8ebf;fontSize=16;fillColor=#dae8fc;" parent="WIyWlLk6GJQsqaUBKTNV-1" vertex="1">
          <mxGeometry x="80" y="60" width="250" height="90" as="geometry" />
        </mxCell>
        <mxCell id="jlqVL0GaNmHU8PocGjJK-126" value="" style="shape=tableRow;horizontal=0;startSize=0;swimlaneHead=0;swimlaneBody=0;top=0;left=0;bottom=0;right=0;collapsible=0;dropTarget=0;fillColor=none;points=[[0,0.5],[1,0.5]];portConstraint=eastwest;strokeColor=inherit;fontSize=16;" parent="jlqVL0GaNmHU8PocGjJK-125" vertex="1">
          <mxGeometry y="30" width="250" height="30" as="geometry" />
        </mxCell>
        <mxCell id="jlqVL0GaNmHU8PocGjJK-127" value="&lt;b&gt;PK&lt;/b&gt;" style="shape=partialRectangle;html=1;whiteSpace=wrap;connectable=0;fillColor=none;top=0;left=0;bottom=0;right=0;overflow=hidden;pointerEvents=1;strokeColor=inherit;fontSize=16;" parent="jlqVL0GaNmHU8PocGjJK-126" vertex="1">
          <mxGeometry width="56" height="30" as="geometry">
            <mxRectangle width="56" height="30" as="alternateBounds" />
          </mxGeometry>
        </mxCell>
        <mxCell id="jlqVL0GaNmHU8PocGjJK-128" value="ID" style="shape=partialRectangle;html=1;whiteSpace=wrap;connectable=0;fillColor=none;top=0;left=0;bottom=0;right=0;align=left;spacingLeft=6;overflow=hidden;strokeColor=inherit;fontSize=16;" parent="jlqVL0GaNmHU8PocGjJK-126" vertex="1">
          <mxGeometry x="56" width="194" height="30" as="geometry">
            <mxRectangle width="194" height="30" as="alternateBounds" />
          </mxGeometry>
        </mxCell>
        <mxCell id="jlqVL0GaNmHU8PocGjJK-129" value="" style="shape=tableRow;horizontal=0;startSize=0;swimlaneHead=0;swimlaneBody=0;top=0;left=0;bottom=0;right=0;collapsible=0;dropTarget=0;fillColor=none;points=[[0,0.5],[1,0.5]];portConstraint=eastwest;strokeColor=inherit;fontSize=16;" parent="jlqVL0GaNmHU8PocGjJK-125" vertex="1">
          <mxGeometry y="60" width="250" height="30" as="geometry" />
        </mxCell>
        <mxCell id="jlqVL0GaNmHU8PocGjJK-130" value="" style="shape=partialRectangle;html=1;whiteSpace=wrap;connectable=0;fillColor=none;top=0;left=0;bottom=0;right=0;overflow=hidden;strokeColor=inherit;fontSize=16;" parent="jlqVL0GaNmHU8PocGjJK-129" vertex="1">
          <mxGeometry width="56" height="30" as="geometry">
            <mxRectangle width="56" height="30" as="alternateBounds" />
          </mxGeometry>
        </mxCell>
        <mxCell id="jlqVL0GaNmHU8PocGjJK-131" value="Type vachar(40) not null" style="shape=partialRectangle;html=1;whiteSpace=wrap;connectable=0;fillColor=none;top=0;left=0;bottom=0;right=0;align=left;spacingLeft=6;overflow=hidden;strokeColor=inherit;fontSize=16;" parent="jlqVL0GaNmHU8PocGjJK-129" vertex="1">
          <mxGeometry x="56" width="194" height="30" as="geometry">
            <mxRectangle width="194" height="30" as="alternateBounds" />
          </mxGeometry>
        </mxCell>
        <mxCell id="jlqVL0GaNmHU8PocGjJK-135" value="Neighborhood" style="shape=table;startSize=30;container=1;collapsible=0;childLayout=tableLayout;fixedRows=1;rowLines=0;fontStyle=1;strokeColor=#6c8ebf;fontSize=16;fillColor=#dae8fc;" parent="WIyWlLk6GJQsqaUBKTNV-1" vertex="1">
          <mxGeometry x="38" y="580" width="334" height="132" as="geometry" />
        </mxCell>
        <mxCell id="jlqVL0GaNmHU8PocGjJK-136" value="" style="shape=tableRow;horizontal=0;startSize=0;swimlaneHead=0;swimlaneBody=0;top=0;left=0;bottom=0;right=0;collapsible=0;dropTarget=0;fillColor=none;points=[[0,0.5],[1,0.5]];portConstraint=eastwest;strokeColor=inherit;fontSize=16;" parent="jlqVL0GaNmHU8PocGjJK-135" vertex="1">
          <mxGeometry y="30" width="334" height="30" as="geometry" />
        </mxCell>
        <mxCell id="jlqVL0GaNmHU8PocGjJK-137" value="&lt;b&gt;PK&lt;/b&gt;" style="shape=partialRectangle;html=1;whiteSpace=wrap;connectable=0;fillColor=none;top=0;left=0;bottom=0;right=0;overflow=hidden;pointerEvents=1;strokeColor=inherit;fontSize=16;" parent="jlqVL0GaNmHU8PocGjJK-136" vertex="1">
          <mxGeometry width="74" height="30" as="geometry">
            <mxRectangle width="74" height="30" as="alternateBounds" />
          </mxGeometry>
        </mxCell>
        <mxCell id="jlqVL0GaNmHU8PocGjJK-138" value="ID" style="shape=partialRectangle;html=1;whiteSpace=wrap;connectable=0;fillColor=none;top=0;left=0;bottom=0;right=0;align=left;spacingLeft=6;overflow=hidden;strokeColor=inherit;fontSize=16;" parent="jlqVL0GaNmHU8PocGjJK-136" vertex="1">
          <mxGeometry x="74" width="260" height="30" as="geometry">
            <mxRectangle width="260" height="30" as="alternateBounds" />
          </mxGeometry>
        </mxCell>
        <mxCell id="jlqVL0GaNmHU8PocGjJK-139" value="" style="shape=tableRow;horizontal=0;startSize=0;swimlaneHead=0;swimlaneBody=0;top=0;left=0;bottom=0;right=0;collapsible=0;dropTarget=0;fillColor=none;points=[[0,0.5],[1,0.5]];portConstraint=eastwest;strokeColor=inherit;fontSize=16;" parent="jlqVL0GaNmHU8PocGjJK-135" vertex="1">
          <mxGeometry y="60" width="334" height="34" as="geometry" />
        </mxCell>
        <mxCell id="jlqVL0GaNmHU8PocGjJK-140" value="" style="shape=partialRectangle;html=1;whiteSpace=wrap;connectable=0;fillColor=none;top=0;left=0;bottom=0;right=0;overflow=hidden;strokeColor=inherit;fontSize=16;" parent="jlqVL0GaNmHU8PocGjJK-139" vertex="1">
          <mxGeometry width="74" height="34" as="geometry">
            <mxRectangle width="74" height="34" as="alternateBounds" />
          </mxGeometry>
        </mxCell>
        <mxCell id="jlqVL0GaNmHU8PocGjJK-141" value="Name varchar(60) not null" style="shape=partialRectangle;html=1;whiteSpace=wrap;connectable=0;fillColor=none;top=0;left=0;bottom=0;right=0;align=left;spacingLeft=6;overflow=hidden;strokeColor=inherit;fontSize=16;" parent="jlqVL0GaNmHU8PocGjJK-139" vertex="1">
          <mxGeometry x="74" width="260" height="34" as="geometry">
            <mxRectangle width="260" height="34" as="alternateBounds" />
          </mxGeometry>
        </mxCell>
        <mxCell id="fUPPbKSHZQUKBwE9CvIT-0" value="" style="shape=tableRow;horizontal=0;startSize=0;swimlaneHead=0;swimlaneBody=0;top=0;left=0;bottom=0;right=0;collapsible=0;dropTarget=0;fillColor=none;points=[[0,0.5],[1,0.5]];portConstraint=eastwest;strokeColor=inherit;fontSize=16;" parent="jlqVL0GaNmHU8PocGjJK-135" vertex="1">
          <mxGeometry y="94" width="334" height="35" as="geometry" />
        </mxCell>
        <mxCell id="fUPPbKSHZQUKBwE9CvIT-1" value="" style="shape=partialRectangle;html=1;whiteSpace=wrap;connectable=0;fillColor=none;top=0;left=0;bottom=0;right=0;overflow=hidden;strokeColor=inherit;fontSize=16;" parent="fUPPbKSHZQUKBwE9CvIT-0" vertex="1">
          <mxGeometry width="74" height="35" as="geometry">
            <mxRectangle width="74" height="35" as="alternateBounds" />
          </mxGeometry>
        </mxCell>
        <mxCell id="fUPPbKSHZQUKBwE9CvIT-2" value="Geom geometry(polygon) not null" style="shape=partialRectangle;html=1;whiteSpace=wrap;connectable=0;fillColor=none;top=0;left=0;bottom=0;right=0;align=left;spacingLeft=6;overflow=hidden;strokeColor=inherit;fontSize=16;" parent="fUPPbKSHZQUKBwE9CvIT-0" vertex="1">
          <mxGeometry x="74" width="260" height="35" as="geometry">
            <mxRectangle width="260" height="35" as="alternateBounds" />
          </mxGeometry>
        </mxCell>
        <mxCell id="jlqVL0GaNmHU8PocGjJK-148" value="Water_fountains" style="shape=table;startSize=30;container=1;collapsible=0;childLayout=tableLayout;fixedRows=1;rowLines=0;fontStyle=1;strokeColor=#9673a6;fontSize=16;fillColor=#e1d5e7;" parent="WIyWlLk6GJQsqaUBKTNV-1" vertex="1">
          <mxGeometry x="525" y="611" width="310" height="180" as="geometry" />
        </mxCell>
        <mxCell id="jlqVL0GaNmHU8PocGjJK-149" value="" style="shape=tableRow;horizontal=0;startSize=0;swimlaneHead=0;swimlaneBody=0;top=0;left=0;bottom=0;right=0;collapsible=0;dropTarget=0;fillColor=none;points=[[0,0.5],[1,0.5]];portConstraint=eastwest;strokeColor=inherit;fontSize=16;" parent="jlqVL0GaNmHU8PocGjJK-148" vertex="1">
          <mxGeometry y="30" width="310" height="30" as="geometry" />
        </mxCell>
        <mxCell id="jlqVL0GaNmHU8PocGjJK-150" value="&lt;b&gt;PK&lt;/b&gt;" style="shape=partialRectangle;html=1;whiteSpace=wrap;connectable=0;fillColor=none;top=0;left=0;bottom=0;right=0;overflow=hidden;pointerEvents=1;strokeColor=inherit;fontSize=16;" parent="jlqVL0GaNmHU8PocGjJK-149" vertex="1">
          <mxGeometry width="69" height="30" as="geometry">
            <mxRectangle width="69" height="30" as="alternateBounds" />
          </mxGeometry>
        </mxCell>
        <mxCell id="jlqVL0GaNmHU8PocGjJK-151" value="ID" style="shape=partialRectangle;html=1;whiteSpace=wrap;connectable=0;fillColor=none;top=0;left=0;bottom=0;right=0;align=left;spacingLeft=6;overflow=hidden;strokeColor=inherit;fontSize=16;" parent="jlqVL0GaNmHU8PocGjJK-149" vertex="1">
          <mxGeometry x="69" width="241" height="30" as="geometry">
            <mxRectangle width="241" height="30" as="alternateBounds" />
          </mxGeometry>
        </mxCell>
        <mxCell id="jlqVL0GaNmHU8PocGjJK-152" value="" style="shape=tableRow;horizontal=0;startSize=0;swimlaneHead=0;swimlaneBody=0;top=0;left=0;bottom=0;right=0;collapsible=0;dropTarget=0;fillColor=none;points=[[0,0.5],[1,0.5]];portConstraint=eastwest;strokeColor=inherit;fontSize=16;" parent="jlqVL0GaNmHU8PocGjJK-148" vertex="1">
          <mxGeometry y="60" width="310" height="30" as="geometry" />
        </mxCell>
        <mxCell id="jlqVL0GaNmHU8PocGjJK-153" value="&lt;b&gt;FK&lt;/b&gt;" style="shape=partialRectangle;html=1;whiteSpace=wrap;connectable=0;fillColor=none;top=0;left=0;bottom=0;right=0;overflow=hidden;strokeColor=inherit;fontSize=16;" parent="jlqVL0GaNmHU8PocGjJK-152" vertex="1">
          <mxGeometry width="69" height="30" as="geometry">
            <mxRectangle width="69" height="30" as="alternateBounds" />
          </mxGeometry>
        </mxCell>
        <mxCell id="jlqVL0GaNmHU8PocGjJK-154" value="Neighborhood_id integer not null" style="shape=partialRectangle;html=1;whiteSpace=wrap;connectable=0;fillColor=none;top=0;left=0;bottom=0;right=0;align=left;spacingLeft=6;overflow=hidden;strokeColor=inherit;fontSize=16;" parent="jlqVL0GaNmHU8PocGjJK-152" vertex="1">
          <mxGeometry x="69" width="241" height="30" as="geometry">
            <mxRectangle width="241" height="30" as="alternateBounds" />
          </mxGeometry>
        </mxCell>
        <mxCell id="jlqVL0GaNmHU8PocGjJK-155" value="" style="shape=tableRow;horizontal=0;startSize=0;swimlaneHead=0;swimlaneBody=0;top=0;left=0;bottom=0;right=0;collapsible=0;dropTarget=0;fillColor=none;points=[[0,0.5],[1,0.5]];portConstraint=eastwest;strokeColor=inherit;fontSize=16;" parent="jlqVL0GaNmHU8PocGjJK-148" vertex="1">
          <mxGeometry y="90" width="310" height="30" as="geometry" />
        </mxCell>
        <mxCell id="jlqVL0GaNmHU8PocGjJK-156" value="" style="shape=partialRectangle;html=1;whiteSpace=wrap;connectable=0;fillColor=none;top=0;left=0;bottom=0;right=0;overflow=hidden;strokeColor=inherit;fontSize=16;" parent="jlqVL0GaNmHU8PocGjJK-155" vertex="1">
          <mxGeometry width="69" height="30" as="geometry">
            <mxRectangle width="69" height="30" as="alternateBounds" />
          </mxGeometry>
        </mxCell>
        <mxCell id="jlqVL0GaNmHU8PocGjJK-157" value="Geom geometry(point) not null" style="shape=partialRectangle;html=1;whiteSpace=wrap;connectable=0;fillColor=none;top=0;left=0;bottom=0;right=0;align=left;spacingLeft=6;overflow=hidden;strokeColor=inherit;fontSize=16;" parent="jlqVL0GaNmHU8PocGjJK-155" vertex="1">
          <mxGeometry x="69" width="241" height="30" as="geometry">
            <mxRectangle width="241" height="30" as="alternateBounds" />
          </mxGeometry>
        </mxCell>
        <mxCell id="jlqVL0GaNmHU8PocGjJK-161" value="" style="shape=tableRow;horizontal=0;startSize=0;swimlaneHead=0;swimlaneBody=0;top=0;left=0;bottom=0;right=0;collapsible=0;dropTarget=0;fillColor=none;points=[[0,0.5],[1,0.5]];portConstraint=eastwest;strokeColor=inherit;fontSize=16;" parent="jlqVL0GaNmHU8PocGjJK-148" vertex="1">
          <mxGeometry y="120" width="310" height="30" as="geometry" />
        </mxCell>
        <mxCell id="jlqVL0GaNmHU8PocGjJK-162" value="&lt;b&gt;FK&lt;/b&gt;" style="shape=partialRectangle;html=1;whiteSpace=wrap;connectable=0;fillColor=none;top=0;left=0;bottom=0;right=0;overflow=hidden;strokeColor=inherit;fontSize=16;" parent="jlqVL0GaNmHU8PocGjJK-161" vertex="1">
          <mxGeometry width="69" height="30" as="geometry">
            <mxRectangle width="69" height="30" as="alternateBounds" />
          </mxGeometry>
        </mxCell>
        <mxCell id="jlqVL0GaNmHU8PocGjJK-163" value="Employee_id integer not null" style="shape=partialRectangle;html=1;whiteSpace=wrap;connectable=0;fillColor=none;top=0;left=0;bottom=0;right=0;align=left;spacingLeft=6;overflow=hidden;strokeColor=inherit;fontSize=16;" parent="jlqVL0GaNmHU8PocGjJK-161" vertex="1">
          <mxGeometry x="69" width="241" height="30" as="geometry">
            <mxRectangle width="241" height="30" as="alternateBounds" />
          </mxGeometry>
        </mxCell>
        <mxCell id="hue7xr4t107ri-p9_3j5-2" value="" style="shape=tableRow;horizontal=0;startSize=0;swimlaneHead=0;swimlaneBody=0;top=0;left=0;bottom=0;right=0;collapsible=0;dropTarget=0;fillColor=none;points=[[0,0.5],[1,0.5]];portConstraint=eastwest;strokeColor=inherit;fontSize=16;" parent="jlqVL0GaNmHU8PocGjJK-148" vertex="1">
          <mxGeometry y="150" width="310" height="30" as="geometry" />
        </mxCell>
        <mxCell id="hue7xr4t107ri-p9_3j5-3" value="" style="shape=partialRectangle;html=1;whiteSpace=wrap;connectable=0;fillColor=none;top=0;left=0;bottom=0;right=0;overflow=hidden;strokeColor=inherit;fontSize=16;" parent="hue7xr4t107ri-p9_3j5-2" vertex="1">
          <mxGeometry width="69" height="30" as="geometry">
            <mxRectangle width="69" height="30" as="alternateBounds" />
          </mxGeometry>
        </mxCell>
        <mxCell id="hue7xr4t107ri-p9_3j5-4" value="Adress varchar(200) not null" style="shape=partialRectangle;html=1;whiteSpace=wrap;connectable=0;fillColor=none;top=0;left=0;bottom=0;right=0;align=left;spacingLeft=6;overflow=hidden;strokeColor=inherit;fontSize=16;" parent="hue7xr4t107ri-p9_3j5-2" vertex="1">
          <mxGeometry x="69" width="241" height="30" as="geometry">
            <mxRectangle width="241" height="30" as="alternateBounds" />
          </mxGeometry>
        </mxCell>
        <mxCell id="jlqVL0GaNmHU8PocGjJK-164" value="Atraction_rating_employee" style="shape=table;startSize=30;container=1;collapsible=0;childLayout=tableLayout;fixedRows=1;rowLines=0;fontStyle=1;strokeColor=#6c8ebf;fontSize=16;fillColor=#dae8fc;" parent="WIyWlLk6GJQsqaUBKTNV-1" vertex="1">
          <mxGeometry x="1217" y="685" width="288" height="163" as="geometry" />
        </mxCell>
        <mxCell id="jlqVL0GaNmHU8PocGjJK-168" value="" style="shape=tableRow;horizontal=0;startSize=0;swimlaneHead=0;swimlaneBody=0;top=0;left=0;bottom=0;right=0;collapsible=0;dropTarget=0;fillColor=none;points=[[0,0.5],[1,0.5]];portConstraint=eastwest;strokeColor=inherit;fontSize=16;" parent="jlqVL0GaNmHU8PocGjJK-164" vertex="1">
          <mxGeometry y="30" width="288" height="30" as="geometry" />
        </mxCell>
        <mxCell id="jlqVL0GaNmHU8PocGjJK-169" value="" style="shape=partialRectangle;html=1;whiteSpace=wrap;connectable=0;fillColor=none;top=0;left=0;bottom=0;right=0;overflow=hidden;strokeColor=inherit;fontSize=16;" parent="jlqVL0GaNmHU8PocGjJK-168" vertex="1">
          <mxGeometry width="64" height="30" as="geometry">
            <mxRectangle width="64" height="30" as="alternateBounds" />
          </mxGeometry>
        </mxCell>
        <mxCell id="jlqVL0GaNmHU8PocGjJK-170" value="Rating varchar(2) not null" style="shape=partialRectangle;html=1;whiteSpace=wrap;connectable=0;fillColor=none;top=0;left=0;bottom=0;right=0;align=left;spacingLeft=6;overflow=hidden;strokeColor=inherit;fontSize=16;" parent="jlqVL0GaNmHU8PocGjJK-168" vertex="1">
          <mxGeometry x="64" width="224" height="30" as="geometry">
            <mxRectangle width="224" height="30" as="alternateBounds" />
          </mxGeometry>
        </mxCell>
        <mxCell id="jlqVL0GaNmHU8PocGjJK-171" value="" style="shape=tableRow;horizontal=0;startSize=0;swimlaneHead=0;swimlaneBody=0;top=0;left=0;bottom=0;right=0;collapsible=0;dropTarget=0;fillColor=none;points=[[0,0.5],[1,0.5]];portConstraint=eastwest;strokeColor=inherit;fontSize=16;" parent="jlqVL0GaNmHU8PocGjJK-164" vertex="1">
          <mxGeometry y="60" width="288" height="30" as="geometry" />
        </mxCell>
        <mxCell id="jlqVL0GaNmHU8PocGjJK-172" value="&lt;b&gt;FK&lt;/b&gt;" style="shape=partialRectangle;html=1;whiteSpace=wrap;connectable=0;fillColor=none;top=0;left=0;bottom=0;right=0;overflow=hidden;strokeColor=inherit;fontSize=16;" parent="jlqVL0GaNmHU8PocGjJK-171" vertex="1">
          <mxGeometry width="64" height="30" as="geometry">
            <mxRectangle width="64" height="30" as="alternateBounds" />
          </mxGeometry>
        </mxCell>
        <mxCell id="jlqVL0GaNmHU8PocGjJK-173" value="Employee_id integer not null" style="shape=partialRectangle;html=1;whiteSpace=wrap;connectable=0;fillColor=none;top=0;left=0;bottom=0;right=0;align=left;spacingLeft=6;overflow=hidden;strokeColor=inherit;fontSize=16;" parent="jlqVL0GaNmHU8PocGjJK-171" vertex="1">
          <mxGeometry x="64" width="224" height="30" as="geometry">
            <mxRectangle width="224" height="30" as="alternateBounds" />
          </mxGeometry>
        </mxCell>
        <mxCell id="jlqVL0GaNmHU8PocGjJK-185" value="" style="shape=tableRow;horizontal=0;startSize=0;swimlaneHead=0;swimlaneBody=0;top=0;left=0;bottom=0;right=0;collapsible=0;dropTarget=0;fillColor=none;points=[[0,0.5],[1,0.5]];portConstraint=eastwest;strokeColor=inherit;fontSize=16;" parent="jlqVL0GaNmHU8PocGjJK-164" vertex="1">
          <mxGeometry y="90" width="288" height="30" as="geometry" />
        </mxCell>
        <mxCell id="jlqVL0GaNmHU8PocGjJK-186" value="&lt;b&gt;FK&lt;/b&gt;" style="shape=partialRectangle;html=1;whiteSpace=wrap;connectable=0;fillColor=none;top=0;left=0;bottom=0;right=0;overflow=hidden;strokeColor=inherit;fontSize=16;" parent="jlqVL0GaNmHU8PocGjJK-185" vertex="1">
          <mxGeometry width="64" height="30" as="geometry">
            <mxRectangle width="64" height="30" as="alternateBounds" />
          </mxGeometry>
        </mxCell>
        <mxCell id="jlqVL0GaNmHU8PocGjJK-187" value="Atractions_id integer not null" style="shape=partialRectangle;html=1;whiteSpace=wrap;connectable=0;fillColor=none;top=0;left=0;bottom=0;right=0;align=left;spacingLeft=6;overflow=hidden;strokeColor=inherit;fontSize=16;" parent="jlqVL0GaNmHU8PocGjJK-185" vertex="1">
          <mxGeometry x="64" width="224" height="30" as="geometry">
            <mxRectangle width="224" height="30" as="alternateBounds" />
          </mxGeometry>
        </mxCell>
        <mxCell id="Cfz4-qON7zyVv7GNAHIs-13" value="" style="shape=tableRow;horizontal=0;startSize=0;swimlaneHead=0;swimlaneBody=0;top=0;left=0;bottom=0;right=0;collapsible=0;dropTarget=0;fillColor=none;points=[[0,0.5],[1,0.5]];portConstraint=eastwest;strokeColor=inherit;fontSize=16;" parent="jlqVL0GaNmHU8PocGjJK-164" vertex="1">
          <mxGeometry y="120" width="288" height="30" as="geometry" />
        </mxCell>
        <mxCell id="Cfz4-qON7zyVv7GNAHIs-14" value="&lt;b&gt;PK&lt;/b&gt;" style="shape=partialRectangle;html=1;whiteSpace=wrap;connectable=0;fillColor=none;top=0;left=0;bottom=0;right=0;overflow=hidden;strokeColor=inherit;fontSize=16;" parent="Cfz4-qON7zyVv7GNAHIs-13" vertex="1">
          <mxGeometry width="64" height="30" as="geometry">
            <mxRectangle width="64" height="30" as="alternateBounds" />
          </mxGeometry>
        </mxCell>
        <mxCell id="Cfz4-qON7zyVv7GNAHIs-15" value="ID" style="shape=partialRectangle;html=1;whiteSpace=wrap;connectable=0;fillColor=none;top=0;left=0;bottom=0;right=0;align=left;spacingLeft=6;overflow=hidden;strokeColor=inherit;fontSize=16;" parent="Cfz4-qON7zyVv7GNAHIs-13" vertex="1">
          <mxGeometry x="64" width="224" height="30" as="geometry">
            <mxRectangle width="224" height="30" as="alternateBounds" />
          </mxGeometry>
        </mxCell>
        <mxCell id="jlqVL0GaNmHU8PocGjJK-174" value="Atraction_rating_members" style="shape=table;startSize=30;container=1;collapsible=0;childLayout=tableLayout;fixedRows=1;rowLines=0;fontStyle=1;strokeColor=#6c8ebf;fontSize=16;fillColor=#dae8fc;" parent="WIyWlLk6GJQsqaUBKTNV-1" vertex="1">
          <mxGeometry x="1168" y="978" width="288" height="153" as="geometry" />
        </mxCell>
        <mxCell id="jlqVL0GaNmHU8PocGjJK-175" value="" style="shape=tableRow;horizontal=0;startSize=0;swimlaneHead=0;swimlaneBody=0;top=0;left=0;bottom=0;right=0;collapsible=0;dropTarget=0;fillColor=none;points=[[0,0.5],[1,0.5]];portConstraint=eastwest;strokeColor=inherit;fontSize=16;" parent="jlqVL0GaNmHU8PocGjJK-174" vertex="1">
          <mxGeometry y="30" width="288" height="30" as="geometry" />
        </mxCell>
        <mxCell id="jlqVL0GaNmHU8PocGjJK-176" value="&lt;b&gt;PK&lt;/b&gt;" style="shape=partialRectangle;html=1;whiteSpace=wrap;connectable=0;fillColor=none;top=0;left=0;bottom=0;right=0;overflow=hidden;pointerEvents=1;strokeColor=inherit;fontSize=16;" parent="jlqVL0GaNmHU8PocGjJK-175" vertex="1">
          <mxGeometry width="64" height="30" as="geometry">
            <mxRectangle width="64" height="30" as="alternateBounds" />
          </mxGeometry>
        </mxCell>
        <mxCell id="jlqVL0GaNmHU8PocGjJK-177" value="ID" style="shape=partialRectangle;html=1;whiteSpace=wrap;connectable=0;fillColor=none;top=0;left=0;bottom=0;right=0;align=left;spacingLeft=6;overflow=hidden;strokeColor=inherit;fontSize=16;" parent="jlqVL0GaNmHU8PocGjJK-175" vertex="1">
          <mxGeometry x="64" width="224" height="30" as="geometry">
            <mxRectangle width="224" height="30" as="alternateBounds" />
          </mxGeometry>
        </mxCell>
        <mxCell id="jlqVL0GaNmHU8PocGjJK-178" value="" style="shape=tableRow;horizontal=0;startSize=0;swimlaneHead=0;swimlaneBody=0;top=0;left=0;bottom=0;right=0;collapsible=0;dropTarget=0;fillColor=none;points=[[0,0.5],[1,0.5]];portConstraint=eastwest;strokeColor=inherit;fontSize=16;" parent="jlqVL0GaNmHU8PocGjJK-174" vertex="1">
          <mxGeometry y="60" width="288" height="30" as="geometry" />
        </mxCell>
        <mxCell id="jlqVL0GaNmHU8PocGjJK-179" value="" style="shape=partialRectangle;html=1;whiteSpace=wrap;connectable=0;fillColor=none;top=0;left=0;bottom=0;right=0;overflow=hidden;strokeColor=inherit;fontSize=16;" parent="jlqVL0GaNmHU8PocGjJK-178" vertex="1">
          <mxGeometry width="64" height="30" as="geometry">
            <mxRectangle width="64" height="30" as="alternateBounds" />
          </mxGeometry>
        </mxCell>
        <mxCell id="jlqVL0GaNmHU8PocGjJK-180" value="Rating varchar(2) not null" style="shape=partialRectangle;html=1;whiteSpace=wrap;connectable=0;fillColor=none;top=0;left=0;bottom=0;right=0;align=left;spacingLeft=6;overflow=hidden;strokeColor=inherit;fontSize=16;" parent="jlqVL0GaNmHU8PocGjJK-178" vertex="1">
          <mxGeometry x="64" width="224" height="30" as="geometry">
            <mxRectangle width="224" height="30" as="alternateBounds" />
          </mxGeometry>
        </mxCell>
        <mxCell id="jlqVL0GaNmHU8PocGjJK-181" value="" style="shape=tableRow;horizontal=0;startSize=0;swimlaneHead=0;swimlaneBody=0;top=0;left=0;bottom=0;right=0;collapsible=0;dropTarget=0;fillColor=none;points=[[0,0.5],[1,0.5]];portConstraint=eastwest;strokeColor=inherit;fontSize=16;" parent="jlqVL0GaNmHU8PocGjJK-174" vertex="1">
          <mxGeometry y="90" width="288" height="30" as="geometry" />
        </mxCell>
        <mxCell id="jlqVL0GaNmHU8PocGjJK-182" value="&lt;b&gt;FK&lt;/b&gt;" style="shape=partialRectangle;html=1;whiteSpace=wrap;connectable=0;fillColor=none;top=0;left=0;bottom=0;right=0;overflow=hidden;strokeColor=inherit;fontSize=16;" parent="jlqVL0GaNmHU8PocGjJK-181" vertex="1">
          <mxGeometry width="64" height="30" as="geometry">
            <mxRectangle width="64" height="30" as="alternateBounds" />
          </mxGeometry>
        </mxCell>
        <mxCell id="jlqVL0GaNmHU8PocGjJK-183" value="Members_id integer not null" style="shape=partialRectangle;html=1;whiteSpace=wrap;connectable=0;fillColor=none;top=0;left=0;bottom=0;right=0;align=left;spacingLeft=6;overflow=hidden;strokeColor=inherit;fontSize=16;" parent="jlqVL0GaNmHU8PocGjJK-181" vertex="1">
          <mxGeometry x="64" width="224" height="30" as="geometry">
            <mxRectangle width="224" height="30" as="alternateBounds" />
          </mxGeometry>
        </mxCell>
        <mxCell id="jlqVL0GaNmHU8PocGjJK-189" value="" style="shape=tableRow;horizontal=0;startSize=0;swimlaneHead=0;swimlaneBody=0;top=0;left=0;bottom=0;right=0;collapsible=0;dropTarget=0;fillColor=none;points=[[0,0.5],[1,0.5]];portConstraint=eastwest;strokeColor=inherit;fontSize=16;" parent="jlqVL0GaNmHU8PocGjJK-174" vertex="1">
          <mxGeometry y="120" width="288" height="30" as="geometry" />
        </mxCell>
        <mxCell id="jlqVL0GaNmHU8PocGjJK-190" value="&lt;b&gt;FK&lt;/b&gt;" style="shape=partialRectangle;html=1;whiteSpace=wrap;connectable=0;fillColor=none;top=0;left=0;bottom=0;right=0;overflow=hidden;strokeColor=inherit;fontSize=16;" parent="jlqVL0GaNmHU8PocGjJK-189" vertex="1">
          <mxGeometry width="64" height="30" as="geometry">
            <mxRectangle width="64" height="30" as="alternateBounds" />
          </mxGeometry>
        </mxCell>
        <mxCell id="jlqVL0GaNmHU8PocGjJK-191" value="Atractions_id integer not null" style="shape=partialRectangle;html=1;whiteSpace=wrap;connectable=0;fillColor=none;top=0;left=0;bottom=0;right=0;align=left;spacingLeft=6;overflow=hidden;strokeColor=inherit;fontSize=16;" parent="jlqVL0GaNmHU8PocGjJK-189" vertex="1">
          <mxGeometry x="64" width="224" height="30" as="geometry">
            <mxRectangle width="224" height="30" as="alternateBounds" />
          </mxGeometry>
        </mxCell>
        <mxCell id="jlqVL0GaNmHU8PocGjJK-184" value="" style="edgeStyle=entityRelationEdgeStyle;fontSize=12;html=1;endArrow=ERoneToMany;rounded=0;exitX=1;exitY=0.5;exitDx=0;exitDy=0;entryX=0;entryY=0.5;entryDx=0;entryDy=0;" parent="WIyWlLk6GJQsqaUBKTNV-1" target="jlqVL0GaNmHU8PocGjJK-36" edge="1">
          <mxGeometry width="100" height="100" relative="1" as="geometry">
            <mxPoint x="331" y="106" as="sourcePoint" />
            <mxPoint x="291" y="416" as="targetPoint" />
          </mxGeometry>
        </mxCell>
        <mxCell id="jlqVL0GaNmHU8PocGjJK-192" value="" style="edgeStyle=entityRelationEdgeStyle;fontSize=12;html=1;endArrow=ERoneToMany;rounded=0;exitX=1;exitY=0.5;exitDx=0;exitDy=0;" parent="WIyWlLk6GJQsqaUBKTNV-1" target="jlqVL0GaNmHU8PocGjJK-21" edge="1">
          <mxGeometry width="100" height="100" relative="1" as="geometry">
            <mxPoint x="370" y="624" as="sourcePoint" />
            <mxPoint x="516" y="843" as="targetPoint" />
          </mxGeometry>
        </mxCell>
        <mxCell id="jlqVL0GaNmHU8PocGjJK-193" value="" style="edgeStyle=entityRelationEdgeStyle;fontSize=12;html=1;endArrow=ERoneToMany;rounded=0;" parent="WIyWlLk6GJQsqaUBKTNV-1" target="jlqVL0GaNmHU8PocGjJK-112" edge="1">
          <mxGeometry width="100" height="100" relative="1" as="geometry">
            <mxPoint x="374" y="624" as="sourcePoint" />
            <mxPoint x="355" y="419" as="targetPoint" />
          </mxGeometry>
        </mxCell>
        <mxCell id="jlqVL0GaNmHU8PocGjJK-195" value="" style="edgeStyle=entityRelationEdgeStyle;fontSize=12;html=1;endArrow=ERoneToMany;rounded=0;entryX=0;entryY=0.5;entryDx=0;entryDy=0;" parent="WIyWlLk6GJQsqaUBKTNV-1" source="jlqVL0GaNmHU8PocGjJK-136" target="jlqVL0GaNmHU8PocGjJK-152" edge="1">
          <mxGeometry width="100" height="100" relative="1" as="geometry">
            <mxPoint x="308" y="832" as="sourcePoint" />
            <mxPoint x="415" y="443" as="targetPoint" />
          </mxGeometry>
        </mxCell>
        <mxCell id="jlqVL0GaNmHU8PocGjJK-196" value="" style="edgeStyle=orthogonalEdgeStyle;fontSize=12;html=1;endArrow=ERoneToMany;rounded=0;jumpStyle=none;exitX=1;exitY=0.5;exitDx=0;exitDy=0;entryX=1;entryY=0.5;entryDx=0;entryDy=0;" parent="WIyWlLk6GJQsqaUBKTNV-1" source="jlqVL0GaNmHU8PocGjJK-44" target="jlqVL0GaNmHU8PocGjJK-122" edge="1">
          <mxGeometry width="100" height="100" relative="1" as="geometry">
            <mxPoint x="282" y="802" as="sourcePoint" />
            <mxPoint x="389" y="413" as="targetPoint" />
            <Array as="points">
              <mxPoint x="1265" y="363" />
              <mxPoint x="1265" y="600" />
              <mxPoint x="383" y="600" />
              <mxPoint x="383" y="509" />
              <mxPoint x="390" y="509" />
              <mxPoint x="390" y="479" />
            </Array>
          </mxGeometry>
        </mxCell>
        <mxCell id="hue7xr4t107ri-p9_3j5-0" value="" style="edgeStyle=entityRelationEdgeStyle;fontSize=12;html=1;endArrow=ERoneToMany;rounded=0;" parent="WIyWlLk6GJQsqaUBKTNV-1" source="jlqVL0GaNmHU8PocGjJK-44" target="jlqVL0GaNmHU8PocGjJK-24" edge="1">
          <mxGeometry width="100" height="100" relative="1" as="geometry">
            <mxPoint x="847" y="226" as="sourcePoint" />
            <mxPoint x="1035" y="585" as="targetPoint" />
          </mxGeometry>
        </mxCell>
        <mxCell id="hue7xr4t107ri-p9_3j5-1" value="Adress varchar(200) not null" style="shape=partialRectangle;html=1;whiteSpace=wrap;connectable=0;fillColor=none;top=0;left=0;bottom=0;right=0;align=left;spacingLeft=6;overflow=hidden;strokeColor=inherit;fontSize=16;" parent="WIyWlLk6GJQsqaUBKTNV-1" vertex="1">
          <mxGeometry x="83" y="496" width="272" height="30" as="geometry">
            <mxRectangle width="272" height="30" as="alternateBounds" />
          </mxGeometry>
        </mxCell>
        <mxCell id="hue7xr4t107ri-p9_3j5-6" value="Parks" style="shape=table;startSize=30;container=1;collapsible=0;childLayout=tableLayout;fixedRows=1;rowLines=0;fontStyle=1;strokeColor=#9673a6;fontSize=16;fillColor=#e1d5e7;" parent="WIyWlLk6GJQsqaUBKTNV-1" vertex="1">
          <mxGeometry x="131" y="866" width="380" height="180" as="geometry" />
        </mxCell>
        <mxCell id="hue7xr4t107ri-p9_3j5-7" value="" style="shape=tableRow;horizontal=0;startSize=0;swimlaneHead=0;swimlaneBody=0;top=0;left=0;bottom=0;right=0;collapsible=0;dropTarget=0;fillColor=none;points=[[0,0.5],[1,0.5]];portConstraint=eastwest;strokeColor=inherit;fontSize=16;" parent="hue7xr4t107ri-p9_3j5-6" vertex="1">
          <mxGeometry y="30" width="380" height="30" as="geometry" />
        </mxCell>
        <mxCell id="hue7xr4t107ri-p9_3j5-8" value="&lt;b&gt;PK&lt;/b&gt;" style="shape=partialRectangle;html=1;whiteSpace=wrap;connectable=0;fillColor=none;top=0;left=0;bottom=0;right=0;overflow=hidden;pointerEvents=1;strokeColor=inherit;fontSize=16;" parent="hue7xr4t107ri-p9_3j5-7" vertex="1">
          <mxGeometry width="85" height="30" as="geometry">
            <mxRectangle width="85" height="30" as="alternateBounds" />
          </mxGeometry>
        </mxCell>
        <mxCell id="hue7xr4t107ri-p9_3j5-9" value="ID" style="shape=partialRectangle;html=1;whiteSpace=wrap;connectable=0;fillColor=none;top=0;left=0;bottom=0;right=0;align=left;spacingLeft=6;overflow=hidden;strokeColor=inherit;fontSize=16;" parent="hue7xr4t107ri-p9_3j5-7" vertex="1">
          <mxGeometry x="85" width="295" height="30" as="geometry">
            <mxRectangle width="295" height="30" as="alternateBounds" />
          </mxGeometry>
        </mxCell>
        <mxCell id="hue7xr4t107ri-p9_3j5-22" value="" style="shape=tableRow;horizontal=0;startSize=0;swimlaneHead=0;swimlaneBody=0;top=0;left=0;bottom=0;right=0;collapsible=0;dropTarget=0;fillColor=none;points=[[0,0.5],[1,0.5]];portConstraint=eastwest;strokeColor=inherit;fontSize=16;" parent="hue7xr4t107ri-p9_3j5-6" vertex="1">
          <mxGeometry y="60" width="380" height="30" as="geometry" />
        </mxCell>
        <mxCell id="hue7xr4t107ri-p9_3j5-23" value="" style="shape=partialRectangle;html=1;whiteSpace=wrap;connectable=0;fillColor=none;top=0;left=0;bottom=0;right=0;overflow=hidden;strokeColor=inherit;fontSize=16;" parent="hue7xr4t107ri-p9_3j5-22" vertex="1">
          <mxGeometry width="85" height="30" as="geometry">
            <mxRectangle width="85" height="30" as="alternateBounds" />
          </mxGeometry>
        </mxCell>
        <mxCell id="hue7xr4t107ri-p9_3j5-24" value="Name (100) not null" style="shape=partialRectangle;html=1;whiteSpace=wrap;connectable=0;fillColor=none;top=0;left=0;bottom=0;right=0;align=left;spacingLeft=6;overflow=hidden;strokeColor=inherit;fontSize=16;" parent="hue7xr4t107ri-p9_3j5-22" vertex="1">
          <mxGeometry x="85" width="295" height="30" as="geometry">
            <mxRectangle width="295" height="30" as="alternateBounds" />
          </mxGeometry>
        </mxCell>
        <mxCell id="hue7xr4t107ri-p9_3j5-10" value="" style="shape=tableRow;horizontal=0;startSize=0;swimlaneHead=0;swimlaneBody=0;top=0;left=0;bottom=0;right=0;collapsible=0;dropTarget=0;fillColor=none;points=[[0,0.5],[1,0.5]];portConstraint=eastwest;strokeColor=inherit;fontSize=16;" parent="hue7xr4t107ri-p9_3j5-6" vertex="1">
          <mxGeometry y="90" width="380" height="30" as="geometry" />
        </mxCell>
        <mxCell id="hue7xr4t107ri-p9_3j5-11" value="&lt;b&gt;FK&lt;/b&gt;" style="shape=partialRectangle;html=1;whiteSpace=wrap;connectable=0;fillColor=none;top=0;left=0;bottom=0;right=0;overflow=hidden;strokeColor=inherit;fontSize=16;" parent="hue7xr4t107ri-p9_3j5-10" vertex="1">
          <mxGeometry width="85" height="30" as="geometry">
            <mxRectangle width="85" height="30" as="alternateBounds" />
          </mxGeometry>
        </mxCell>
        <mxCell id="hue7xr4t107ri-p9_3j5-12" value="Neighborhood_id integer not null" style="shape=partialRectangle;html=1;whiteSpace=wrap;connectable=0;fillColor=none;top=0;left=0;bottom=0;right=0;align=left;spacingLeft=6;overflow=hidden;strokeColor=inherit;fontSize=16;" parent="hue7xr4t107ri-p9_3j5-10" vertex="1">
          <mxGeometry x="85" width="295" height="30" as="geometry">
            <mxRectangle width="295" height="30" as="alternateBounds" />
          </mxGeometry>
        </mxCell>
        <mxCell id="hue7xr4t107ri-p9_3j5-13" value="" style="shape=tableRow;horizontal=0;startSize=0;swimlaneHead=0;swimlaneBody=0;top=0;left=0;bottom=0;right=0;collapsible=0;dropTarget=0;fillColor=none;points=[[0,0.5],[1,0.5]];portConstraint=eastwest;strokeColor=inherit;fontSize=16;" parent="hue7xr4t107ri-p9_3j5-6" vertex="1">
          <mxGeometry y="120" width="380" height="30" as="geometry" />
        </mxCell>
        <mxCell id="hue7xr4t107ri-p9_3j5-14" value="" style="shape=partialRectangle;html=1;whiteSpace=wrap;connectable=0;fillColor=none;top=0;left=0;bottom=0;right=0;overflow=hidden;strokeColor=inherit;fontSize=16;" parent="hue7xr4t107ri-p9_3j5-13" vertex="1">
          <mxGeometry width="85" height="30" as="geometry">
            <mxRectangle width="85" height="30" as="alternateBounds" />
          </mxGeometry>
        </mxCell>
        <mxCell id="hue7xr4t107ri-p9_3j5-15" value="Geom geometry(polygon) not null" style="shape=partialRectangle;html=1;whiteSpace=wrap;connectable=0;fillColor=none;top=0;left=0;bottom=0;right=0;align=left;spacingLeft=6;overflow=hidden;strokeColor=inherit;fontSize=16;" parent="hue7xr4t107ri-p9_3j5-13" vertex="1">
          <mxGeometry x="85" width="295" height="30" as="geometry">
            <mxRectangle width="295" height="30" as="alternateBounds" />
          </mxGeometry>
        </mxCell>
        <mxCell id="hue7xr4t107ri-p9_3j5-19" value="" style="shape=tableRow;horizontal=0;startSize=0;swimlaneHead=0;swimlaneBody=0;top=0;left=0;bottom=0;right=0;collapsible=0;dropTarget=0;fillColor=none;points=[[0,0.5],[1,0.5]];portConstraint=eastwest;strokeColor=inherit;fontSize=16;" parent="hue7xr4t107ri-p9_3j5-6" vertex="1">
          <mxGeometry y="150" width="380" height="30" as="geometry" />
        </mxCell>
        <mxCell id="hue7xr4t107ri-p9_3j5-20" value="&lt;b&gt;FK&lt;/b&gt;" style="shape=partialRectangle;html=1;whiteSpace=wrap;connectable=0;fillColor=none;top=0;left=0;bottom=0;right=0;overflow=hidden;strokeColor=inherit;fontSize=16;" parent="hue7xr4t107ri-p9_3j5-19" vertex="1">
          <mxGeometry width="85" height="30" as="geometry">
            <mxRectangle width="85" height="30" as="alternateBounds" />
          </mxGeometry>
        </mxCell>
        <mxCell id="hue7xr4t107ri-p9_3j5-21" value="Employee_id integer not null" style="shape=partialRectangle;html=1;whiteSpace=wrap;connectable=0;fillColor=none;top=0;left=0;bottom=0;right=0;align=left;spacingLeft=6;overflow=hidden;strokeColor=inherit;fontSize=16;" parent="hue7xr4t107ri-p9_3j5-19" vertex="1">
          <mxGeometry x="85" width="295" height="30" as="geometry">
            <mxRectangle width="295" height="30" as="alternateBounds" />
          </mxGeometry>
        </mxCell>
        <mxCell id="hue7xr4t107ri-p9_3j5-25" value="" style="edgeStyle=elbowEdgeStyle;fontSize=12;html=1;endArrow=ERoneToMany;rounded=0;startArrow=ERoneToMany;startFill=0;exitX=0;exitY=0.5;exitDx=0;exitDy=0;" parent="WIyWlLk6GJQsqaUBKTNV-1" source="jlqVL0GaNmHU8PocGjJK-136" target="hue7xr4t107ri-p9_3j5-10" edge="1">
          <mxGeometry width="100" height="100" relative="1" as="geometry">
            <mxPoint x="81" y="625" as="sourcePoint" />
            <mxPoint x="218" y="613" as="targetPoint" />
            <Array as="points">
              <mxPoint x="30" y="799" />
            </Array>
          </mxGeometry>
        </mxCell>
        <mxCell id="hue7xr4t107ri-p9_3j5-27" value="" style="edgeStyle=orthogonalEdgeStyle;fontSize=12;html=1;endArrow=ERoneToMany;rounded=0;entryX=1;entryY=0.5;entryDx=0;entryDy=0;" parent="WIyWlLk6GJQsqaUBKTNV-1" source="jlqVL0GaNmHU8PocGjJK-44" target="hue7xr4t107ri-p9_3j5-19" edge="1">
          <mxGeometry width="100" height="100" relative="1" as="geometry">
            <mxPoint x="1270" y="808" as="sourcePoint" />
            <mxPoint x="1202" y="860" as="targetPoint" />
            <Array as="points">
              <mxPoint x="882" y="363" />
              <mxPoint x="882" y="1031" />
            </Array>
          </mxGeometry>
        </mxCell>
        <mxCell id="lEzvTHQQZW1dRXTrLJBF-1" value="" style="edgeStyle=entityRelationEdgeStyle;fontSize=12;html=1;endArrow=ERmany;rounded=0;" parent="WIyWlLk6GJQsqaUBKTNV-1" source="jlqVL0GaNmHU8PocGjJK-171" target="jlqVL0GaNmHU8PocGjJK-44" edge="1">
          <mxGeometry width="100" height="100" relative="1" as="geometry">
            <mxPoint x="1484" y="664" as="sourcePoint" />
            <mxPoint x="1505" y="632" as="targetPoint" />
          </mxGeometry>
        </mxCell>
        <mxCell id="Cfz4-qON7zyVv7GNAHIs-16" value="" style="edgeStyle=entityRelationEdgeStyle;fontSize=12;html=1;endArrow=ERmany;rounded=0;" parent="WIyWlLk6GJQsqaUBKTNV-1" source="jlqVL0GaNmHU8PocGjJK-185" target="jlqVL0GaNmHU8PocGjJK-6" edge="1">
          <mxGeometry width="100" height="100" relative="1" as="geometry">
            <mxPoint x="1398" y="759" as="sourcePoint" />
            <mxPoint x="1265" y="373" as="targetPoint" />
          </mxGeometry>
        </mxCell>
        <mxCell id="Cfz4-qON7zyVv7GNAHIs-17" value="" style="edgeStyle=entityRelationEdgeStyle;fontSize=12;html=1;endArrow=ERmany;rounded=0;" parent="WIyWlLk6GJQsqaUBKTNV-1" source="jlqVL0GaNmHU8PocGjJK-181" target="jlqVL0GaNmHU8PocGjJK-73" edge="1">
          <mxGeometry width="100" height="100" relative="1" as="geometry">
            <mxPoint x="1398" y="759" as="sourcePoint" />
            <mxPoint x="1265" y="373" as="targetPoint" />
          </mxGeometry>
        </mxCell>
        <mxCell id="Cfz4-qON7zyVv7GNAHIs-18" value="" style="edgeStyle=entityRelationEdgeStyle;fontSize=12;html=1;endArrow=ERmany;rounded=0;exitX=0;exitY=0.5;exitDx=0;exitDy=0;" parent="WIyWlLk6GJQsqaUBKTNV-1" source="jlqVL0GaNmHU8PocGjJK-189" target="jlqVL0GaNmHU8PocGjJK-6" edge="1">
          <mxGeometry width="100" height="100" relative="1" as="geometry">
            <mxPoint x="1110" y="789" as="sourcePoint" />
            <mxPoint x="837" y="155" as="targetPoint" />
          </mxGeometry>
        </mxCell>
      </root>
    </mxGraphModel>
  </diagram>
</mxfile>
